<svg width="48" height="48" viewBox="0 0 48 48" fill="none" xmlns="http://www.w3.org/2000/svg">
<path d="M23.5616 44.3077C23.1881 44.3058 22.8193 44.2272 22.4791 44.0769C22.1388 43.9266 21.8349 43.708 21.5871 43.4354L18.0727 39.5706C17.9481 39.4335 17.7952 39.3238 17.6239 39.2486C17.4527 39.1734 17.2671 39.1345 17.0793 39.1344H12.9688C10.5117 39.1312 8.156 38.1784 6.4174 36.4844C4.67879 34.7905 3.69895 32.4935 3.69238 30.0963L3.69238 14.5887C3.69567 12.1894 4.67406 9.88929 6.41302 8.19274C8.15198 6.4962 10.5096 5.54167 12.9688 5.53846L34.1544 5.53846C36.6137 5.54167 38.9712 6.4962 40.7102 8.19274C42.4492 9.88929 43.4276 12.1894 43.4308 14.5887V30.0963C43.4276 32.4956 42.4492 34.7957 40.7102 36.4923C38.9712 38.1888 36.6137 39.1433 34.1544 39.1465C33.8257 39.1154 33.5207 38.9661 33.2988 38.7275C33.0769 38.489 32.9539 38.1784 32.9539 37.8562C32.9539 37.5341 33.0769 37.2235 33.2988 36.985C33.5207 36.7464 33.8257 36.5971 34.1544 36.566C35.9088 36.5628 37.5905 35.8814 38.8311 34.6711C40.0716 33.4607 40.7701 31.8201 40.7733 30.1085V14.5887C40.7701 12.877 40.0716 11.2364 38.8311 10.026C37.5905 8.81573 35.9088 8.13436 34.1544 8.13115H12.9688C11.2122 8.13115 9.5274 8.81111 8.28414 10.0218C7.04087 11.2324 6.34076 12.8749 6.33747 14.5887V30.0963C6.34076 31.8101 7.04087 33.4526 8.28414 34.6632C9.5274 35.8739 11.2122 36.5538 12.9688 36.5538H17.0793C17.6397 36.5535 18.1939 36.6689 18.7054 36.8923C19.2169 37.1157 19.6742 37.4421 20.0472 37.8502L23.5616 41.7271L27.076 37.8623C27.3126 37.6156 27.6387 37.4688 27.9846 37.4532C28.3306 37.4375 28.6691 37.5543 28.9281 37.7786C29.1872 38.0028 29.3462 38.3169 29.3714 38.6539C29.3965 38.9909 29.2859 39.3241 29.0629 39.5827L25.5485 43.4354C25.2993 43.7095 24.9934 43.929 24.6509 44.0793C24.3084 44.2297 23.9372 44.3075 23.5616 44.3077Z" fill="#7E4AE7"/>
<path d="M34.2134 19.1009H23.5717C23.3864 19.1205 23.1994 19.0976 23.0227 19.0338C22.846 18.97 22.6835 18.8666 22.5456 18.7304C22.4078 18.5941 22.2976 18.4279 22.2222 18.2425C22.1469 18.0571 22.1079 17.8566 22.1079 17.6538C22.1079 17.4511 22.1469 17.2506 22.2222 17.0652C22.2976 16.8798 22.4078 16.7136 22.5456 16.5773C22.6835 16.4411 22.846 16.3377 23.0227 16.2739C23.1994 16.2101 23.3864 16.1872 23.5717 16.2068H34.2134C34.3987 16.1872 34.5857 16.2101 34.7624 16.2739C34.9391 16.3377 35.1016 16.4411 35.2394 16.5773C35.3773 16.7136 35.4874 16.8798 35.5628 17.0652C35.6382 17.2506 35.6771 17.4511 35.6771 17.6538C35.6771 17.8566 35.6382 18.0571 35.5628 18.2425C35.4874 18.4279 35.3773 18.5941 35.2394 18.7304C35.1016 18.8666 34.9391 18.97 34.7624 19.0338C34.5857 19.0976 34.3987 19.1205 34.2134 19.1009Z" fill="#7E4AE7"/>
<path d="M34.2134 28.7932H23.5717C23.3864 28.8128 23.1994 28.7899 23.0227 28.7261C22.846 28.6623 22.6835 28.5589 22.5456 28.4227C22.4078 28.2864 22.2976 28.1202 22.2222 27.9348C22.1469 27.7494 22.1079 27.5489 22.1079 27.3462C22.1079 27.1434 22.1469 26.9429 22.2222 26.7575C22.2976 26.5721 22.4078 26.4059 22.5456 26.2696C22.6835 26.1334 22.846 26.03 23.0227 25.9662C23.1994 25.9024 23.3864 25.8795 23.5717 25.8991H34.2134C34.3987 25.8795 34.5857 25.9024 34.7624 25.9662C34.9391 26.03 35.1016 26.1334 35.2394 26.2696C35.3773 26.4059 35.4874 26.5721 35.5628 26.7575C35.6382 26.9429 35.6771 27.1434 35.6771 27.3462C35.6771 27.5489 35.6382 27.7494 35.5628 27.9348C35.4874 28.1202 35.3773 28.2864 35.2394 28.4227C35.1016 28.5589 34.9391 28.6623 34.7624 28.7261C34.5857 28.7899 34.3987 28.8128 34.2134 28.7932Z" fill="#7E4AE7"/>
<path d="M15.3237 21.0462C14.5569 21.0462 13.8074 20.8188 13.1698 20.3928C12.5322 19.9668 12.0353 19.3613 11.7419 18.6529C11.4485 17.9444 11.3717 17.1649 11.5213 16.4129C11.6709 15.6608 12.0401 14.97 12.5823 14.4278C13.1245 13.8856 13.8153 13.5164 14.5674 13.3668C15.3194 13.2172 16.0989 13.294 16.8073 13.5874C17.5157 13.8809 18.1212 14.3778 18.5472 15.0153C18.9732 15.6529 19.2006 16.4024 19.2006 17.1692C19.2006 18.1975 18.7922 19.1836 18.0651 19.9106C17.338 20.6377 16.3519 21.0462 15.3237 21.0462ZM15.3237 15.8729C15.0673 15.8729 14.8167 15.9489 14.6035 16.0914C14.3903 16.2338 14.2242 16.4363 14.126 16.6731C14.0279 16.91 14.0022 17.1707 14.0523 17.4221C14.1023 17.6736 14.2257 17.9046 14.407 18.0859C14.5883 18.2672 14.8193 18.3906 15.0708 18.4407C15.3223 18.4907 15.5829 18.465 15.8198 18.3669C16.0567 18.2688 16.2591 18.1026 16.4016 17.8894C16.544 17.6763 16.62 17.4256 16.62 17.1692C16.62 16.8254 16.4835 16.4957 16.2404 16.2526C15.9972 16.0095 15.6675 15.8729 15.3237 15.8729Z" fill="#7E4AE7"/>
<path d="M15.3237 31.7077C14.5569 31.7077 13.8074 31.4803 13.1698 31.0543C12.5322 30.6283 12.0353 30.0228 11.7419 29.3144C11.4485 28.606 11.3717 27.8265 11.5213 27.0744C11.6709 26.3224 12.0401 25.6316 12.5823 25.0894C13.1245 24.5472 13.8153 24.1779 14.5674 24.0283C15.3194 23.8787 16.0989 23.9555 16.8073 24.249C17.5157 24.5424 18.1212 25.0393 18.5472 25.6769C18.9732 26.3144 19.2006 27.064 19.2006 27.8308C19.2006 28.859 18.7922 29.8451 18.0651 30.5722C17.338 31.2992 16.3519 31.7077 15.3237 31.7077ZM15.3237 26.5344C15.0673 26.5344 14.8167 26.6105 14.6035 26.7529C14.3903 26.8953 14.2242 27.0978 14.126 27.3347C14.0279 27.5716 14.0022 27.8322 14.0523 28.0837C14.1023 28.3351 14.2257 28.5661 14.407 28.7474C14.5883 28.9287 14.8193 29.0522 15.0708 29.1022C15.3223 29.1522 15.5829 29.1266 15.8198 29.0284C16.0567 28.9303 16.2591 28.7642 16.4016 28.551C16.544 28.3378 16.62 28.0872 16.62 27.8308C16.6169 27.4891 16.4789 27.1624 16.2361 26.9219C15.9933 26.6814 15.6654 26.5465 15.3237 26.5465V26.5344Z" fill="#7E4AE7"/>
</svg>
