<svg width="48" height="48" viewBox="0 0 48 48" fill="none" xmlns="http://www.w3.org/2000/svg">
<path d="M29.1732 20.1231C29.1732 19.0999 28.8698 18.0997 28.3013 17.249C27.7329 16.3982 26.9249 15.7351 25.9797 15.3436C25.0344 14.952 23.9942 14.8496 22.9907 15.0492C21.9872 15.2488 21.0654 15.7415 20.3419 16.465C19.6184 17.1885 19.1257 18.1103 18.9261 19.1138C18.7265 20.1173 18.8289 21.1575 19.2205 22.1028C19.612 23.0481 20.2751 23.856 21.1258 24.4245C21.9766 24.9929 22.9768 25.2963 23.9999 25.2963C25.372 25.2963 26.6878 24.7513 27.658 23.7811C28.6282 22.811 29.1732 21.4951 29.1732 20.1231ZM21.4194 20.1231C21.4194 19.6127 21.5707 19.1138 21.8543 18.6894C22.1378 18.265 22.5408 17.9342 23.0124 17.7389C23.4839 17.5436 24.0028 17.4925 24.5034 17.5921C25.004 17.6917 25.4638 17.9374 25.8247 18.2983C26.1856 18.6592 26.4314 19.119 26.5309 19.6196C26.6305 20.1202 26.5794 20.6391 26.3841 21.1106C26.1888 21.5822 25.858 21.9852 25.4336 22.2687C25.0092 22.5523 24.5103 22.7036 23.9999 22.7036C23.3165 22.7005 22.662 22.4276 22.1787 21.9443C21.6954 21.461 21.4225 20.8065 21.4194 20.1231Z" fill="#7E4AE7"/>
<path d="M17.6877 29.3671C17.5998 29.5181 17.5434 29.6852 17.5217 29.8585C17.5001 30.0318 17.5137 30.2077 17.5617 30.3756C17.6097 30.5436 17.6911 30.7001 17.8011 30.8357C17.9111 30.9714 18.0474 31.0834 18.2018 31.1651C18.3562 31.2468 18.5255 31.2964 18.6995 31.311C18.8736 31.3257 19.0488 31.305 19.2146 31.2502C19.3804 31.1954 19.5335 31.1077 19.6646 30.9923C19.7957 30.8769 19.9021 30.7362 19.9775 30.5786C20.1939 30.1581 20.5222 29.8055 20.9263 29.5596C21.3303 29.3138 21.7944 29.1843 22.2673 29.1854H25.7202C26.1931 29.1843 26.6572 29.3138 27.0613 29.5596C27.4653 29.8055 27.7936 30.1581 28.01 30.5786C28.1701 30.8813 28.4424 31.1092 28.7685 31.2134C29.0947 31.3176 29.4487 31.2898 29.7546 31.136C30.0596 30.9783 30.2896 30.706 30.3941 30.3789C30.4986 30.0518 30.469 29.6967 30.3119 29.3913C29.8771 28.5493 29.2183 27.8436 28.4082 27.3519C27.598 26.8603 26.6679 26.6017 25.7202 26.6048H22.2673C21.3242 26.6017 20.3983 26.8576 19.5907 27.3447C18.7831 27.8319 18.1249 28.5314 17.6877 29.3671Z" fill="#7E4AE7"/>
<path d="M38.2113 33.0502C37.2935 33.0543 36.3937 33.3054 35.6065 33.7771L34.0072 32.1779C35.4131 30.4585 36.3523 28.406 36.7343 26.2181C37.1163 24.0303 36.9281 21.7809 36.188 19.6869C36.1491 19.5068 36.0723 19.337 35.9627 19.1888C35.853 19.0407 35.7131 18.9177 35.5521 18.8279C35.3911 18.7382 35.2129 18.6838 35.0292 18.6683C34.8456 18.6529 34.6608 18.6768 34.4871 18.7385C34.3134 18.8002 34.1549 18.8981 34.0221 19.0259C33.8892 19.1537 33.7852 19.3083 33.7169 19.4794C33.6485 19.6506 33.6174 19.8343 33.6257 20.0184C33.634 20.2026 33.6815 20.3828 33.7649 20.5471C34.4002 22.388 34.5029 24.3709 34.0614 26.2676C33.6199 28.1644 32.6521 29.898 31.2691 31.2692C29.3343 33.184 26.7221 34.258 23.9999 34.258C21.2778 34.258 18.6656 33.184 16.7307 31.2692C16.6102 31.1476 16.4667 31.0511 16.3087 30.9852C16.1507 30.9193 15.9811 30.8854 15.8099 30.8854C15.6387 30.8854 15.4692 30.9193 15.3111 30.9852C15.1531 31.0511 15.0097 31.1476 14.8891 31.2692L12.4661 33.6923C11.6788 33.2206 10.779 32.9695 9.86126 32.9654C8.83808 32.9654 7.83789 33.2688 6.98715 33.8372C6.13641 34.4057 5.47333 35.2136 5.08178 36.1589C4.69023 37.1042 4.58778 38.1444 4.78739 39.1479C4.98701 40.1514 5.47971 41.0732 6.20321 41.7967C6.9267 42.5202 7.84849 43.0129 8.85201 43.2125C9.85552 43.4121 10.8957 43.3097 11.841 42.9181C12.7863 42.5266 13.5942 41.8635 14.1627 41.0128C14.7311 40.162 15.0345 39.1618 15.0345 38.1386C15.0304 37.2209 14.7793 36.3211 14.3076 35.5338L15.9068 33.9346C18.2142 35.8223 21.1036 36.8536 24.0847 36.8536C27.0659 36.8536 29.9552 35.8223 32.2626 33.9346L33.8618 35.5338C33.3901 36.3211 33.139 37.2209 33.1349 38.1386C33.1349 39.1618 33.4383 40.162 34.0068 41.0128C34.5752 41.8635 35.3832 42.5266 36.3285 42.9181C37.2738 43.3097 38.3139 43.4121 39.3174 43.2125C40.321 43.0129 41.2427 42.5202 41.9662 41.7967C42.6897 41.0732 43.1824 40.1514 43.3821 39.1479C43.5817 38.1444 43.4792 37.1042 43.0877 36.1589C42.6961 35.2136 42.033 34.4057 41.1823 33.8372C40.3316 33.2688 39.3314 32.9654 38.3082 32.9654L38.2113 33.0502ZM9.78857 40.804C9.2787 40.804 8.78025 40.653 8.35614 40.3699C7.93204 40.0869 7.60128 39.6846 7.40561 39.2138C7.20994 38.7429 7.15813 38.2247 7.25673 37.7244C7.35532 37.2242 7.5999 36.7644 7.95958 36.403C8.31927 36.0416 8.77795 35.7949 9.27774 35.6939C9.77752 35.593 10.296 35.6424 10.7677 35.8358C11.2395 36.0293 11.6434 36.3582 11.9284 36.781C12.2134 37.2037 12.3668 37.7015 12.3691 38.2113C12.3692 38.8969 12.0977 39.5545 11.6141 40.0404C11.1304 40.5262 10.4741 40.8008 9.78857 40.804ZM38.2234 40.804C37.713 40.804 37.2141 40.6527 36.7897 40.3691C36.3653 40.0856 36.0346 39.6825 35.8392 39.211C35.6439 38.7395 35.5928 38.2206 35.6924 37.72C35.792 37.2194 36.0377 36.7596 36.3986 36.3987C36.7595 36.0378 37.2193 35.792 37.7199 35.6925C38.2205 35.5929 38.7394 35.644 39.2109 35.8393C39.6825 36.0346 40.0855 36.3654 40.369 36.7898C40.6526 37.2141 40.804 37.7131 40.804 38.2234C40.8008 38.909 40.5262 39.5653 40.0403 40.0489C39.5544 40.5325 38.8968 40.804 38.2113 40.804H38.2234Z" fill="#7E4AE7"/>
<path d="M9.7884 14.9498C10.7062 14.9457 11.6059 14.6946 12.3932 14.2229L14.0046 15.8221C12.5997 17.5396 11.661 19.5901 11.2791 21.7758C10.8971 23.9615 11.0847 26.2088 11.8238 28.301C11.9416 28.6211 12.1797 28.8826 12.4875 29.0297C12.7953 29.1768 13.1484 29.1979 13.4715 29.0885C13.6353 29.0363 13.7872 28.9521 13.9182 28.8407C14.0492 28.7293 14.1567 28.593 14.2345 28.4397C14.3123 28.2863 14.3588 28.119 14.3713 27.9475C14.3839 27.7761 14.3621 27.6038 14.3074 27.4408C13.5819 25.2502 13.6103 22.8798 14.3883 20.7073C15.1662 18.5347 16.6489 16.6851 18.6001 15.4531C20.5513 14.221 22.8587 13.6775 25.1547 13.909C27.4507 14.1406 29.6031 15.1339 31.269 16.7308C31.5135 16.9698 31.8418 17.1036 32.1837 17.1036C32.5256 17.1036 32.8539 16.9698 33.0984 16.7308L35.5215 14.3077C36.3088 14.7794 37.2085 15.0305 38.1263 15.0346C39.1495 15.0346 40.1497 14.7312 41.0004 14.1628C41.8511 13.5943 42.5142 12.7864 42.9058 11.8411C43.2973 10.8958 43.3998 9.8556 43.2002 8.85208C43.0005 7.84857 42.5078 6.92678 41.7843 6.20328C41.0608 5.47979 40.1391 4.98708 39.1355 4.78747C38.132 4.58786 37.0919 4.69031 36.1466 5.08186C35.2013 5.47341 34.3933 6.13648 33.8249 6.98722C33.2564 7.83796 32.953 8.83816 32.953 9.86134C32.9571 10.7791 33.2082 11.6789 33.6799 12.4661L32.1776 13.9927C29.8713 12.1028 26.9815 11.0701 23.9997 11.0701C21.018 11.0701 18.1282 12.1028 15.8219 13.9927L14.2226 12.3935C14.6943 11.6062 14.9454 10.7064 14.9496 9.78864C14.952 8.76444 14.6503 7.76257 14.0828 6.90998C13.5152 6.05739 12.7074 5.39244 11.7616 4.99938C10.8158 4.60633 9.77465 4.50286 8.77001 4.70209C7.76537 4.90131 6.84247 5.39427 6.11825 6.11849C5.39402 6.84271 4.90107 7.76561 4.70184 8.77026C4.50262 9.7749 4.60609 10.8161 4.99914 11.7619C5.39219 12.7076 6.05714 13.5155 6.90974 14.083C7.76233 14.6505 8.7642 14.9522 9.7884 14.9498ZM38.2232 7.19595C38.7326 7.19835 39.2298 7.35143 39.6523 7.6359C40.0748 7.92038 40.4037 8.32353 40.5975 8.79457C40.7913 9.26561 40.8414 9.78347 40.7415 10.2829C40.6415 10.7824 40.396 11.2411 40.0358 11.6012C39.6756 11.9614 39.2169 12.2069 38.7175 12.3069C38.218 12.4069 37.7002 12.3568 37.2291 12.163C36.7581 11.9691 36.3549 11.6403 36.0705 11.2178C35.786 10.7952 35.6329 10.298 35.6305 9.78864C35.6305 9.10311 35.902 8.44548 36.3856 7.9596C36.8692 7.47373 37.5256 7.19916 38.2111 7.19595H38.2232ZM9.7884 7.19595C10.2977 7.19835 10.795 7.35143 11.2175 7.6359C11.64 7.92038 11.9689 8.32353 12.1627 8.79457C12.3565 9.26561 12.4066 9.78347 12.3067 10.2829C12.2067 10.7824 11.9612 11.2411 11.601 11.6012C11.2408 11.9614 10.7821 12.2069 10.2827 12.3069C9.78323 12.4069 9.26537 12.3568 8.79432 12.163C8.32328 11.9691 7.92013 11.6403 7.63566 11.2178C7.35118 10.7952 7.1981 10.298 7.19571 9.78864C7.19571 9.10102 7.46887 8.44156 7.95509 7.95533C8.44131 7.46911 9.10078 7.19595 9.7884 7.19595Z" fill="#7E4AE7"/>
</svg>
