<svg width="48" height="48" viewBox="0 0 48 48" fill="none" xmlns="http://www.w3.org/2000/svg">
<path d="M22.3622 20.7965C22.3622 19.9382 22.0195 19.1151 21.4096 18.5082C20.7997 17.9013 19.9725 17.5603 19.1099 17.5603H17.8188C17.646 17.5603 17.4802 17.492 17.358 17.3704C17.2358 17.2488 17.1671 17.0838 17.1671 16.9118C17.1671 16.7399 17.2358 16.5749 17.358 16.4533C17.4802 16.3317 17.646 16.2634 17.8188 16.2634H20.8031C20.984 16.2809 21.1666 16.2605 21.3391 16.2035C21.5116 16.1466 21.6703 16.0544 21.8049 15.9328C21.9395 15.8113 22.047 15.663 22.1206 15.4977C22.1942 15.3323 22.2322 15.1534 22.2322 14.9725C22.2322 14.7917 22.1942 14.6128 22.1206 14.4474C22.047 14.282 21.9395 14.1338 21.8049 14.0122C21.6703 13.8907 21.5116 13.7984 21.3391 13.7415C21.1666 13.6846 20.984 13.6642 20.8031 13.6817H19.7677V13.1241C19.7852 12.9441 19.7648 12.7624 19.7076 12.5907C19.6504 12.419 19.5577 12.2612 19.4355 12.1272C19.3134 11.9933 19.1644 11.8863 18.9982 11.8131C18.832 11.7398 18.6522 11.702 18.4705 11.702C18.2887 11.702 18.1089 11.7398 17.9427 11.8131C17.7765 11.8863 17.6276 11.9933 17.5054 12.1272C17.3832 12.2612 17.2906 12.419 17.2334 12.5907C17.1761 12.7624 17.1557 12.9441 17.1732 13.1241V13.7059C16.3915 13.8734 15.6992 14.3215 15.2286 14.9648C14.7579 15.608 14.5419 16.4012 14.6217 17.1929C14.7016 17.9846 15.0718 18.7192 15.6615 19.2565C16.2512 19.7938 17.0192 20.0961 17.8188 20.1056H19.1221C19.295 20.1056 19.4607 20.174 19.5829 20.2956C19.7051 20.4172 19.7738 20.5821 19.7738 20.7541C19.7738 20.9261 19.7051 21.091 19.5829 21.2126C19.4607 21.3342 19.295 21.4026 19.1221 21.4026H16.1257C15.9448 21.3851 15.7622 21.4055 15.5896 21.4624C15.4171 21.5193 15.2584 21.6115 15.1238 21.7331C14.9893 21.8547 14.8817 22.0029 14.8081 22.1683C14.7345 22.3337 14.6965 22.5125 14.6965 22.6934C14.6965 22.8743 14.7345 23.0532 14.8081 23.2185C14.8817 23.3839 14.9893 23.5322 15.1238 23.6537C15.2584 23.7753 15.4171 23.8675 15.5896 23.9244C15.7622 23.9813 15.9448 24.0017 16.1257 23.9843H17.161V24.4933C17.1923 24.8141 17.3425 25.1118 17.5823 25.3284C17.8221 25.545 18.1344 25.665 18.4583 25.665C18.7822 25.665 19.0944 25.545 19.3342 25.3284C19.5741 25.1118 19.7242 24.8141 19.7555 24.4933V23.9115C20.4816 23.7653 21.1357 23.3769 21.6097 22.8104C22.0837 22.244 22.3492 21.5335 22.3622 20.7965Z" fill="#7E4AE7"/>
<path d="M38.2824 25.5599L34.75 24.663V21.3177C34.75 20.3212 34.3522 19.3655 33.644 18.6608C32.9359 17.9562 31.9754 17.5603 30.974 17.5603C29.9725 17.5603 29.0121 17.9562 28.3039 18.6608C27.5958 19.3655 27.198 20.3212 27.198 21.3177V28.1538L25.042 27.4387C24.5246 27.2653 23.9731 27.2171 23.4333 27.2981C22.8935 27.3792 22.3808 27.5871 21.9378 27.9046C21.4949 28.2222 21.1344 28.6402 20.8862 29.1241C20.638 29.608 20.5093 30.1437 20.5108 30.687C20.511 30.9842 20.574 31.2781 20.6957 31.5496C20.8174 31.821 20.9951 32.064 21.2172 32.2627L27.198 37.6079V40.8441C27.2027 41.5307 27.4783 42.188 27.9653 42.6744C28.4411 43.1473 29.0835 43.4169 29.7559 43.4258H40.5236C40.867 43.429 41.2075 43.3647 41.5258 43.2365C41.8441 43.1084 42.1338 42.9189 42.3783 42.679C42.6227 42.4391 42.8172 42.1535 42.9504 41.8386C43.0837 41.5238 43.1531 41.1858 43.1547 40.8441V31.8263C43.157 30.3918 42.6794 28.9973 41.7972 27.8627C40.915 26.7281 39.6784 25.9179 38.2824 25.5599ZM40.5602 40.832H29.7559V37.0261C29.7556 36.8458 29.7176 36.6675 29.6442 36.5026C29.5708 36.3377 29.4636 36.1899 29.3296 36.0686L23.1052 30.4931C23.1499 30.2929 23.267 30.116 23.4341 29.9961C23.5418 29.9188 23.6662 29.8676 23.7973 29.8465C23.9284 29.8255 24.0627 29.8352 24.1893 29.8749L28.0506 31.1597C28.2445 31.2223 28.4503 31.2387 28.6518 31.2078C28.8532 31.1768 29.0445 31.0993 29.2103 30.9814C29.3761 30.8635 29.5119 30.7086 29.6066 30.5291C29.7014 30.3495 29.7525 30.1504 29.7559 29.9476V21.3177C29.826 21.0609 29.9791 20.8343 30.1915 20.6727C30.404 20.5111 30.6639 20.4235 30.9313 20.4235C31.1987 20.4235 31.4587 20.5111 31.6711 20.6727C31.8836 20.8343 32.0366 21.0609 32.1068 21.3177V25.6569C32.1161 25.9365 32.216 26.2056 32.3917 26.424C32.5673 26.6425 32.8092 26.7985 33.0812 26.869L37.5881 28.0204C38.4274 28.2332 39.1715 28.7181 39.7031 29.3985C40.2347 30.0789 40.5234 30.916 40.5236 31.7779L40.5602 40.832Z" fill="#7E4AE7"/>
<path d="M17.2948 30.4446C15.2475 30.2387 13.291 29.4988 11.6229 28.2997C9.95488 27.1007 8.63436 25.4848 7.79474 23.6154C6.95512 21.7459 6.62613 19.6891 6.841 17.6527C7.05587 15.6162 7.80699 13.6723 9.0185 12.0171C10.23 10.362 11.859 9.05425 13.7409 8.22605C15.6229 7.39785 17.6912 7.0785 19.7368 7.30024C21.7825 7.52198 23.7332 8.27696 25.3918 9.48893C27.0504 10.7009 28.3582 12.327 29.1832 14.2028C29.3205 14.5243 29.5805 14.7783 29.906 14.909C30.0672 14.9737 30.2396 15.0062 30.4134 15.0046C30.5872 15.0031 30.759 14.9674 30.9189 14.8998C31.0789 14.8321 31.2239 14.7338 31.3456 14.6104C31.4674 14.487 31.5636 14.3409 31.6286 14.1805C31.6936 14.0201 31.7263 13.8486 31.7247 13.6756C31.7231 13.5027 31.6873 13.3318 31.6193 13.1726C30.6119 10.8828 29.0158 8.89783 26.9916 7.41765C24.9675 5.93748 22.587 5.01446 20.0901 4.74165C17.5932 4.46883 15.0681 4.85586 12.7695 5.86372C10.4708 6.87158 8.47978 8.46465 6.99712 10.4823C5.51446 12.5 4.59256 14.871 4.32436 17.3562C4.05616 19.8415 4.45113 22.3532 5.46947 24.6381C6.48781 26.923 8.09352 28.9004 10.1247 30.371C12.1559 31.8415 14.5408 32.7532 17.039 33.0141C17.2128 33.029 17.3879 33.0094 17.554 32.9563C17.7202 32.9032 17.874 32.8178 18.0066 32.705C18.1393 32.5922 18.248 32.4543 18.3266 32.2993C18.4051 32.1443 18.4519 31.9753 18.4642 31.8021C18.4815 31.4697 18.3698 31.1434 18.1522 30.8908C17.9345 30.6381 17.6275 30.4783 17.2948 30.4446Z" fill="#7E4AE7"/>
</svg>
