<svg width="48" height="48" viewBox="0 0 48 48" fill="none" xmlns="http://www.w3.org/2000/svg">
<path d="M22.0508 23.1784C20.4236 23.1784 19.0977 21.8459 19.0977 20.2106V15.8118C19.0977 14.1765 20.416 12.844 22.0508 12.844C22.5481 12.844 23.0378 12.9727 23.4747 13.2074L25.5239 14.2825C26.2622 14.6686 26.9929 15.0472 27.6333 15.3954C29.0647 16.1828 29.592 17.9847 28.8085 19.4232C28.5373 19.9229 28.1305 20.3317 27.6333 20.6043C26.9929 20.9525 26.2622 21.3462 25.5239 21.7172L23.4747 22.7923C23.0378 23.0421 22.5481 23.1784 22.0508 23.1784ZM22.0508 15.4257C21.8399 15.4257 21.6666 15.5999 21.6666 15.8118V20.2181C21.6666 20.4301 21.8399 20.6043 22.0584 20.6043C22.1187 20.6043 22.1789 20.5891 22.2392 20.5588C22.8645 20.2181 25.78 18.6964 26.4128 18.3557C26.5936 18.2573 26.669 18.0301 26.571 17.8484C26.5334 17.7803 26.4806 17.7273 26.4128 17.6894C25.7875 17.3487 22.8795 15.8346 22.2392 15.4863C22.1789 15.4484 22.1111 15.4257 22.0508 15.4257Z" fill="#7E4AE7"/>
<path d="M37.1031 30.931H11.3832C7.83489 30.931 4.95703 28.0389 4.95703 24.473V11.5494C4.95703 7.98348 7.83489 5.09138 11.3832 5.09138H37.1031C40.6515 5.09138 43.5293 7.98348 43.5293 11.5494V24.473C43.5293 28.0389 40.6515 30.931 37.1031 30.931ZM11.3832 7.67307C9.25121 7.67307 7.52601 9.40682 7.52601 11.5494V24.473C7.52601 26.6156 9.25121 28.3493 11.3832 28.3493H37.1031C39.2351 28.3493 40.9604 26.6156 40.9604 24.473V11.5494C40.9604 9.40682 39.2351 7.67307 37.1031 7.67307H11.3832Z" fill="#7E4AE7"/>
<path d="M16.529 38.6837C15.8208 38.7518 15.188 38.2294 15.1202 37.5178C15.0524 36.8061 15.5722 36.1701 16.2804 36.102C16.3633 36.0944 42.2414 36.102 42.2414 36.102C42.9495 36.0338 43.5823 36.5562 43.6501 37.2679C43.7179 37.9796 43.1981 38.6155 42.49 38.6837C42.4071 38.6913 16.529 38.6837 16.529 38.6837Z" fill="#7E4AE7"/>
<path d="M34.5269 43.8546H16.529C15.8208 43.9228 15.188 43.4004 15.1202 42.6887C15.0524 41.977 15.5722 41.3411 16.2804 41.2729C16.3633 41.2654 16.4461 41.2654 16.529 41.2729H34.5269C35.2351 41.2048 35.8679 41.7272 35.9357 42.4389C36.0035 43.1505 35.4837 43.7865 34.7755 43.8546C34.6926 43.8622 34.6098 43.8622 34.5269 43.8546Z" fill="#7E4AE7"/>
<path d="M8.81426 43.8546C6.68224 43.8546 4.95703 42.1209 4.95703 39.9783C4.95703 37.8357 6.68224 36.102 8.81426 36.102C10.9463 36.102 12.6715 37.8357 12.6715 39.9783C12.6715 42.1209 10.9463 43.8546 8.81426 43.8546ZM8.81426 38.6837C8.09856 38.6837 7.52601 39.2666 7.52601 39.9783C7.52601 40.69 8.1061 41.2729 8.81426 41.2729C9.52242 41.2729 10.1025 40.69 10.1025 39.9783C10.1025 39.2591 9.52996 38.6837 8.81426 38.6837Z" fill="#7E4AE7"/>
</svg>
