<svg width="40" height="40" viewBox="0 0 40 40" fill="none" xmlns="http://www.w3.org/2000/svg">
<g clip-path="url(#clip0_570_36)">
<g clip-path="url(#clip1_570_36)">
<path d="M36.3326 17.1548C36.138 17.1548 35.9599 17.0836 35.8231 16.9659L23.7029 11.3073C23.312 11.1248 23.143 10.6598 23.3255 10.2689C23.508 9.87804 23.9729 9.70874 24.3639 9.89148L36.6631 15.6337C36.9381 15.762 37.1139 16.038 37.1139 16.3416V16.3736C37.1138 16.805 36.7641 17.1548 36.3326 17.1548Z" fill="#8750F7"/>
<path d="M3.66602 17.1549C3.23453 17.1549 2.88477 16.8052 2.88477 16.3737V16.3416C2.88477 16.0381 3.06055 15.7622 3.33555 15.6338L15.6355 9.89086C16.0262 9.70844 16.4913 9.87735 16.6738 10.2683C16.8563 10.6592 16.6874 11.1241 16.2964 11.3066L4.17539 16.966C4.03875 17.0837 3.8607 17.1549 3.66602 17.1549Z" fill="#8750F7"/>
<path d="M19.9995 40.0002C19.8866 40.0002 19.7738 39.9758 19.6691 39.9269L3.33555 32.3012C3.06055 32.1727 2.88477 31.8967 2.88477 31.5933V22.2651C2.88477 21.8337 3.23453 21.4839 3.66602 21.4839C4.0975 21.4839 4.44727 21.8337 4.44727 22.2651V31.0958L19.9995 38.3568L35.5518 31.0958V22.2651C35.5518 21.8337 35.9016 21.4839 36.333 21.4839C36.7645 21.4839 37.1143 21.8337 37.1143 22.2651V31.5932C37.1143 31.8967 36.9385 32.1727 36.6635 32.3011L20.33 39.9269C20.2253 39.9758 20.1124 40.0002 19.9995 40.0002Z" fill="#8750F7"/>
<path d="M19.9994 24.7484C19.8865 24.7484 19.7736 24.724 19.6689 24.6751L3.3357 17.0494C2.94477 16.8669 2.77578 16.4019 2.95828 16.011C3.14078 15.6201 3.60586 15.4512 3.99664 15.6336L19.9994 23.105L36.002 15.6336C36.3931 15.4511 36.858 15.6201 37.0404 16.011C37.223 16.4019 37.054 16.8669 36.663 17.0494L20.3299 24.6751C20.2252 24.724 20.1123 24.7484 19.9994 24.7484Z" fill="#8750F7"/>
<path d="M20 40.0001C19.5685 40.0001 19.2188 39.6503 19.2188 39.2188V23.9673C19.2188 23.5359 19.5685 23.186 20 23.186C20.4314 23.186 20.7812 23.5359 20.7812 23.9673V39.2188C20.7812 39.6503 20.4314 40.0001 20 40.0001Z" fill="#8750F7"/>
<path d="M17.1869 29.305C17.0767 29.305 16.9651 29.2816 16.8592 29.2327L0.453042 21.6389C0.248902 21.5444 0.0953078 21.3665 0.0317922 21.1506C-0.0317234 20.9348 0.000854712 20.702 0.121245 20.5119L3.00671 15.9556C3.21671 15.6241 3.64023 15.4997 3.99609 15.6652L20.3293 23.2589C20.5317 23.353 20.6841 23.5292 20.7483 23.743C20.8123 23.9568 20.7819 24.1877 20.6648 24.3777L17.8523 28.934C17.7057 29.1713 17.4505 29.305 17.1869 29.305ZM1.91789 20.5953L16.8866 27.5237L18.8733 24.3052L3.95953 17.3715L1.91789 20.5953Z" fill="#8750F7"/>
<path d="M22.8129 29.3049C22.5494 29.3049 22.2941 29.1712 22.1476 28.9339L19.3352 24.3777C19.2179 24.1877 19.1876 23.9567 19.2517 23.7429C19.3158 23.5292 19.4683 23.353 19.6707 23.2589L36.0038 15.6652C36.3596 15.4998 36.7831 15.6239 36.9932 15.9556L39.8786 20.5118C39.999 20.702 40.0316 20.9347 39.9681 21.1506C39.9046 21.3664 39.7511 21.5443 39.5468 21.6389L23.1406 29.2326C23.0348 29.2815 22.9231 29.3049 22.8129 29.3049ZM21.1266 24.3051L23.1133 27.5235L38.082 20.5952L36.0403 17.3714L21.1266 24.3051Z" fill="#8750F7"/>
<path d="M22.2955 15.6766H17.7049C17.2734 15.6766 16.9236 15.3268 16.9236 14.8954C16.9236 13.4723 16.3674 12.1017 15.3976 11.1349C14.162 9.90309 13.4814 8.2638 13.4814 6.5188C13.4814 4.74856 14.1789 3.09239 15.4455 1.85528C16.7117 0.618483 18.3814 -0.0404227 20.1568 0.00192105C21.8489 0.0416867 23.4407 0.733718 24.6389 1.95051C25.8366 3.167 26.5042 4.76942 26.5187 6.46208C26.5336 8.21036 25.8654 9.85755 24.6371 11.1003C23.6309 12.1185 23.0767 13.4661 23.0767 14.895C23.0768 15.3265 22.7269 15.6766 22.2955 15.6766ZM18.4424 14.1141H21.5574C21.7299 12.5652 22.4136 11.1273 23.5258 10.002C24.4596 9.05716 24.9675 7.80481 24.9562 6.47544C24.9337 3.82942 22.7642 1.62614 20.12 1.56403C18.7721 1.53333 17.5 2.03278 16.5373 2.97309C15.5743 3.91372 15.0439 5.17301 15.0439 6.51887C15.0439 7.84551 15.5613 9.09192 16.5007 10.0284C17.5823 11.1065 18.2685 12.564 18.4424 14.1141Z" fill="#8750F7"/>
<path d="M21.2566 18.1893H18.7441C18.3127 18.1893 17.9629 17.8395 17.9629 17.408V14.8955C17.9629 14.464 18.3127 14.1143 18.7441 14.1143H21.2566C21.688 14.1143 22.0379 14.464 22.0379 14.8955V17.408C22.0379 17.8395 21.688 18.1893 21.2566 18.1893ZM19.5254 16.6268H20.4754V15.6768H19.5254V16.6268Z" fill="#8750F7"/>
<path d="M21.1999 8.83463C20.9927 8.83463 20.794 8.75229 20.6474 8.6058L19.9717 7.9301L19.296 8.6058C18.991 8.91088 18.4963 8.91088 18.1911 8.6058L17.013 7.42768C16.7079 7.1226 16.7079 6.62791 17.013 6.32275C17.3181 6.01768 17.8128 6.01768 18.1179 6.32275L18.7436 6.94846L19.4193 6.27275C19.7244 5.96768 20.2192 5.96768 20.5242 6.27275L21.1999 6.94846L21.7755 6.37275C22.0806 6.06768 22.5752 6.0676 22.8804 6.37275C23.1855 6.67783 23.1855 7.17252 22.8804 7.4776L21.7524 8.60572C21.6059 8.75229 21.4071 8.83463 21.1999 8.83463Z" fill="#8750F7"/>
<path d="M19.9717 15.6768C19.5402 15.6768 19.1904 15.327 19.1904 14.8955V6.8252C19.1904 6.39371 19.5402 6.04395 19.9717 6.04395C20.4032 6.04395 20.7529 6.39371 20.7529 6.8252V14.8955C20.753 15.327 20.4032 15.6768 19.9717 15.6768Z" fill="#8750F7"/>
<path d="M29.5337 5.00342C29.1796 5.00342 28.8588 4.761 28.774 4.40131C28.6749 3.98139 28.9351 3.56061 29.355 3.46162L30.7859 3.12412C31.2056 3.0249 31.6266 3.28521 31.7256 3.70514C31.8247 4.12506 31.5645 4.54584 31.1446 4.64482L29.7137 4.98232C29.6535 4.99654 29.593 5.00342 29.5337 5.00342Z" fill="#8750F7"/>
<path d="M28.0681 2.67533C27.9664 2.67533 27.8631 2.65533 27.7635 2.61314C27.3663 2.44463 27.1809 1.98611 27.3493 1.58885L27.8212 0.476346C27.9896 0.0791581 28.4478 -0.106233 28.8455 0.062205C29.2427 0.230721 29.4281 0.689236 29.2596 1.0865L28.7878 2.199C28.6615 2.49666 28.3723 2.67533 28.0681 2.67533Z" fill="#8750F7"/>
<path d="M29.8686 8.72382C29.6561 8.72382 29.4445 8.63773 29.2904 8.4682L28.3497 7.43382C28.0594 7.11461 28.0829 6.62054 28.4022 6.33023C28.7213 6.03992 29.2154 6.06336 29.5057 6.38265L30.4464 7.41703C30.7367 7.73625 30.7132 8.23031 30.394 8.52062C30.2442 8.65664 30.0561 8.72382 29.8686 8.72382Z" fill="#8750F7"/>
<path d="M10.7422 5.00334C10.6829 5.00334 10.6226 4.99655 10.5622 4.98225L9.13138 4.64475C8.71146 4.54569 8.45123 4.12498 8.55037 3.70506C8.64951 3.28514 9.07013 3.02506 9.49005 3.12405L10.9209 3.46155C11.3408 3.56061 11.6011 3.98131 11.5019 4.40123C11.4172 4.76084 11.0965 5.00334 10.7422 5.00334Z" fill="#8750F7"/>
<path d="M12.2077 2.67544C11.9035 2.67544 11.6145 2.49669 11.4882 2.19903L11.0163 1.08653C10.8478 0.689347 11.0333 0.230754 11.4305 0.062238C11.8277 -0.106278 12.2863 0.0791911 12.4548 0.476379L12.9267 1.58888C13.0952 1.98607 12.9097 2.44466 12.5125 2.61318C12.4129 2.65544 12.3095 2.67544 12.2077 2.67544Z" fill="#8750F7"/>
<path d="M10.4072 8.64623C10.2093 8.64623 10.0115 8.57162 9.85934 8.42193C9.55176 8.11935 9.5477 7.62474 9.85028 7.31709L10.7909 6.36084C11.0934 6.05326 11.588 6.04912 11.8957 6.35177C12.2033 6.65435 12.2074 7.14896 11.9048 7.45662L10.9642 8.41287C10.8113 8.56826 10.6093 8.64623 10.4072 8.64623Z" fill="#8750F7"/>
</g>
</g>
<defs>
<clipPath id="clip0_570_36">
<rect width="40" height="40" fill="white"/>
</clipPath>
<clipPath id="clip1_570_36">
<rect width="40" height="40" fill="white"/>
</clipPath>
</defs>
</svg>
