<svg width="34" height="33" viewBox="0 0 34 33" fill="none" xmlns="http://www.w3.org/2000/svg">
<path d="M9.35095 28.2239C9.04057 28.2222 8.73397 28.1557 8.45078 28.0286C8.16759 27.9016 7.91403 27.7168 7.70634 27.4862C7.49865 27.2555 7.3414 26.984 7.24464 26.6891C7.14789 26.3942 7.11377 26.0823 7.14446 25.7735L7.88779 18.439L2.9763 12.9407C2.71792 12.6507 2.53999 12.2981 2.46023 11.918C2.38048 11.5379 2.40167 11.1436 2.5217 10.7742C2.64173 10.4048 2.85642 10.0734 3.14439 9.81275C3.43235 9.55215 3.78356 9.37153 4.16303 9.28885L11.3686 7.72843L14.9734 1.53211C15.1796 1.17818 15.475 0.884515 15.8302 0.680411C16.1853 0.476306 16.5878 0.368896 16.9975 0.368896C17.4071 0.368896 17.8096 0.476306 18.1647 0.680411C18.5199 0.884515 18.8153 1.17818 19.0216 1.53211L22.6288 7.72599L29.8351 9.28642C30.2152 9.36864 30.567 9.54909 30.8556 9.80977C31.1441 10.0704 31.3592 10.4022 31.4795 10.772C31.5997 11.1418 31.6209 11.5367 31.5409 11.9172C31.4609 12.2977 31.2825 12.6506 31.0235 12.9407L26.1112 18.439L26.8545 25.7735C26.8937 26.1603 26.8307 26.5507 26.6719 26.9056C26.513 27.2605 26.2638 27.5675 25.9492 27.796C25.6346 28.0245 25.2655 28.1664 24.8789 28.2077C24.4922 28.2489 24.1015 28.188 23.7458 28.031L16.9999 25.0585L10.2532 28.031C9.96928 28.1579 9.66189 28.2236 9.35095 28.2239ZM16.9999 1.99334C16.8737 1.99199 16.7494 2.02443 16.6399 2.08728C16.5305 2.15014 16.4398 2.24113 16.3773 2.35082L12.5893 8.85112C12.5327 8.94834 12.4565 9.0327 12.3655 9.09885C12.2745 9.165 12.1708 9.21149 12.0608 9.23535L4.50592 10.872C4.4028 10.8938 4.30722 10.9423 4.22876 11.0127C4.1503 11.0831 4.09172 11.1729 4.05888 11.273C4.02604 11.3732 4.0201 11.4802 4.04165 11.5834C4.0632 11.6866 4.11149 11.7823 4.18168 11.8609L9.3323 17.6252C9.40716 17.709 9.46376 17.8075 9.49851 17.9144C9.53325 18.0213 9.54539 18.1343 9.53415 18.2461L8.75596 25.9372C8.74544 26.0419 8.76255 26.1475 8.80559 26.2435C8.84862 26.3394 8.91608 26.4225 9.00123 26.4842C9.08638 26.546 9.18624 26.5844 9.29085 26.5955C9.39545 26.6066 9.50114 26.5901 9.59737 26.5476L16.6756 23.4316C16.7785 23.3859 16.8898 23.3623 17.0023 23.3623C17.1149 23.3623 17.2261 23.3859 17.329 23.4316L24.4024 26.5476C24.4986 26.5901 24.6043 26.6066 24.7089 26.5955C24.8135 26.5844 24.9134 26.546 24.9985 26.4842C25.0837 26.4225 25.1511 26.3394 25.1942 26.2435C25.2372 26.1475 25.2543 26.0419 25.2438 25.9372L24.4656 18.2461C24.4544 18.1343 24.4665 18.0213 24.5013 17.9144C24.536 17.8075 24.5926 17.709 24.6675 17.6252L29.8181 11.8601C29.8881 11.7815 29.9362 11.6858 29.9576 11.5828C29.9791 11.4797 29.9731 11.3728 29.9402 11.2728C29.9074 11.1727 29.8489 11.0831 29.7706 11.0127C29.6922 10.9424 29.5968 10.8939 29.4938 10.872L21.9381 9.23535C21.8282 9.21149 21.7244 9.165 21.6334 9.09885C21.5425 9.0327 21.4662 8.94834 21.4096 8.85112L17.6224 2.34758C17.5596 2.23849 17.4687 2.14815 17.3593 2.08588C17.2499 2.02361 17.1258 1.99167 16.9999 1.99334Z" fill="#8750F7"/>
<path d="M16.9999 32.8777C16.785 32.8777 16.5788 32.7923 16.4268 32.6403C16.2747 32.4883 16.1893 32.2821 16.1893 32.0671V28.8247C16.1893 28.6097 16.2747 28.4035 16.4268 28.2515C16.5788 28.0994 16.785 28.014 16.9999 28.014C17.2149 28.014 17.4211 28.0994 17.5731 28.2515C17.7252 28.4035 17.8106 28.6097 17.8106 28.8247V32.0671C17.8106 32.2821 17.7252 32.4883 17.5731 32.6403C17.4211 32.7923 17.2149 32.8777 16.9999 32.8777Z" fill="#8750F7"/>
<path d="M0.810459 21.115C0.617476 21.115 0.430837 21.0461 0.284104 20.9207C0.13737 20.7954 0.0401697 20.6218 0.00998129 20.4312C-0.0202072 20.2406 0.0185969 20.0455 0.119416 19.8809C0.220234 19.7164 0.376453 19.5932 0.55998 19.5335L3.64031 18.5316C3.84145 18.476 4.05628 18.5002 4.24007 18.599C4.42387 18.6978 4.56246 18.8638 4.62701 19.0622C4.69156 19.2606 4.67708 19.4763 4.58661 19.6644C4.49613 19.8524 4.33661 19.9983 4.14126 20.0717L1.06094 21.0737C0.980194 21.1008 0.895626 21.1147 0.810459 21.115Z" fill="#8750F7"/>
<path d="M33.1895 21.1149C33.1044 21.1152 33.0198 21.1017 32.939 21.0752L29.8587 20.0733C29.7531 20.0441 29.6546 19.9939 29.569 19.9256C29.4833 19.8573 29.4125 19.7723 29.3606 19.6759C29.3087 19.5794 29.2769 19.4734 29.2672 19.3644C29.2574 19.2553 29.2698 19.1454 29.3037 19.0412C29.3375 18.9371 29.3922 18.8409 29.4643 18.7584C29.5363 18.676 29.6244 18.609 29.7231 18.5615C29.8218 18.514 29.929 18.487 30.0385 18.4821C30.1479 18.4773 30.2571 18.4946 30.3596 18.5331L33.44 19.535C33.6235 19.5947 33.7797 19.7179 33.8805 19.8824C33.9814 20.047 34.0202 20.2421 33.99 20.4327C33.9598 20.6233 33.8626 20.7969 33.7158 20.9223C33.5691 21.0476 33.3825 21.1165 33.1895 21.1165V21.1149Z" fill="#8750F7"/>
<path d="M25.0987 4.70657C24.9493 4.70644 24.8028 4.665 24.6754 4.58682C24.548 4.50864 24.4447 4.39676 24.377 4.26356C24.3092 4.13036 24.2796 3.98101 24.2913 3.83202C24.3031 3.68303 24.3559 3.54021 24.4438 3.41932L26.3495 0.796177C26.4122 0.710058 26.4911 0.637121 26.582 0.581531C26.6728 0.525942 26.7737 0.488787 26.8789 0.47219C26.9841 0.455592 27.0915 0.459877 27.1951 0.484798C27.2986 0.50972 27.3962 0.55479 27.4823 0.617437C27.5685 0.680083 27.6414 0.759079 27.697 0.849913C27.7526 0.940747 27.7897 1.04164 27.8063 1.14683C27.8229 1.25203 27.8186 1.35946 27.7937 1.463C27.7688 1.56653 27.7237 1.66415 27.6611 1.75027L25.7545 4.37179C25.6794 4.47539 25.5808 4.55974 25.4668 4.61793C25.3528 4.67612 25.2267 4.70649 25.0987 4.70657Z" fill="#8750F7"/>
<path d="M8.90123 4.70654C8.77311 4.70659 8.64681 4.67628 8.53268 4.61809C8.41855 4.55989 8.31983 4.47547 8.24463 4.37176L6.33888 1.75024C6.21247 1.57631 6.16033 1.35929 6.19392 1.14692C6.22752 0.934552 6.3441 0.744225 6.51803 0.617812C6.69195 0.491399 6.90897 0.439256 7.12134 0.472852C7.33371 0.506448 7.52404 0.623032 7.65045 0.796957L9.5562 3.4201C9.64408 3.54099 9.69683 3.68382 9.70861 3.8328C9.7204 3.98179 9.69077 4.13114 9.623 4.26434C9.55522 4.39754 9.45194 4.50942 9.32456 4.5876C9.19719 4.66578 9.05068 4.70722 8.90123 4.70735V4.70654Z" fill="#8750F7"/>
</svg>
