<svg width="40" height="40" viewBox="0 0 40 40" fill="none" xmlns="http://www.w3.org/2000/svg">
<path d="M23.1515 22.0899C23.438 22.0899 23.7127 21.9761 23.9153 21.7736C24.1178 21.571 24.2316 21.2963 24.2316 21.0098V18.2439H26.6947V21.0098C26.7206 21.277 26.8451 21.5249 27.0438 21.7053C27.2426 21.8857 27.5014 21.9856 27.7698 21.9856C28.0382 21.9856 28.297 21.8857 28.4957 21.7053C28.6945 21.5249 28.8189 21.277 28.8448 21.0098V18.2439H30.0764C30.2263 18.2585 30.3776 18.2415 30.5206 18.1941C30.6636 18.1467 30.7951 18.0699 30.9066 17.9686C31.0182 17.8674 31.1073 17.7439 31.1683 17.6062C31.2293 17.4684 31.2608 17.3195 31.2608 17.1688C31.2608 17.0182 31.2293 16.8692 31.1683 16.7315C31.1073 16.5938 31.0182 16.4703 30.9066 16.3691C30.7951 16.2678 30.6636 16.191 30.5206 16.1436C30.3776 16.0962 30.2263 16.0792 30.0764 16.0938H19.3761C19.1114 14.9101 18.4194 13.8658 17.4326 13.1607C16.4457 12.4556 15.2334 12.1393 14.0279 12.2725C12.8224 12.4056 11.7084 12.9788 10.8992 13.8823C10.09 14.7858 9.64258 15.956 9.64258 17.1688C9.64258 18.3817 10.09 19.5519 10.8992 20.4554C11.7084 21.3589 12.8224 21.9321 14.0279 22.0652C15.2334 22.1984 16.4457 21.8821 17.4326 21.177C18.4194 20.4719 19.1114 19.4275 19.3761 18.2439H22.1219V21.0098C22.1215 21.2877 22.2284 21.5551 22.4202 21.7563C22.6119 21.9574 22.8739 22.077 23.1515 22.0899ZM14.5408 19.9398C13.9965 19.9299 13.4672 19.7595 13.0192 19.45C12.5713 19.1406 12.2246 18.7058 12.0227 18.2002C11.8208 17.6946 11.7725 17.1406 11.8841 16.6077C11.9956 16.0748 12.262 15.5867 12.6497 15.2045C13.0375 14.8223 13.5294 14.563 14.0638 14.4592C14.5983 14.3554 15.1515 14.4116 15.6541 14.6208C16.1568 14.83 16.5865 15.1829 16.8895 15.6353C17.1924 16.0876 17.3551 16.6193 17.3572 17.1638C17.3559 17.5309 17.2818 17.8941 17.1392 18.2324C16.9966 18.5707 16.7883 18.8773 16.5263 19.1346C16.2644 19.3918 15.954 19.5946 15.6132 19.731C15.2724 19.8675 14.9079 19.935 14.5408 19.9297V19.9398Z" fill="white"/>
<path d="M34.9617 5.81771C34.4632 5.31636 33.8701 4.919 33.2168 4.64867C32.5636 4.37835 31.8631 4.24044 31.1561 4.24295H9.61429C8.18732 4.24295 6.81879 4.80982 5.80977 5.81884C4.80075 6.82786 4.23389 8.19639 4.23389 9.62336L4.23389 24.7046C4.23655 26.1308 4.80427 27.4978 5.81272 28.5062C6.82116 29.5147 8.18814 30.0824 9.61429 30.085H19.3051V34.3954H15.0048C14.8549 34.3809 14.7035 34.3979 14.5606 34.4453C14.4176 34.4927 14.2861 34.5695 14.1745 34.6707C14.063 34.772 13.9739 34.8954 13.9129 35.0331C13.8519 35.1709 13.8204 35.3199 13.8204 35.4705C13.8204 35.6211 13.8519 35.7701 13.9129 35.9078C13.9739 36.0456 14.063 36.169 14.1745 36.2703C14.2861 36.3715 14.4176 36.4483 14.5606 36.4957C14.7035 36.5431 14.8549 36.5601 15.0048 36.5456H25.7656C25.9155 36.5601 26.0669 36.5431 26.2098 36.4957C26.3528 36.4483 26.4843 36.3715 26.5958 36.2703C26.7074 36.169 26.7965 36.0456 26.8575 35.9078C26.9185 35.7701 26.95 35.6211 26.95 35.4705C26.95 35.3199 26.9185 35.1709 26.8575 35.0331C26.7965 34.8954 26.7074 34.772 26.5958 34.6707C26.4843 34.5695 26.3528 34.4927 26.2098 34.4453C26.0669 34.3979 25.9155 34.3809 25.7656 34.3954H21.4653V29.0049C21.4627 28.7202 21.3477 28.4481 21.1454 28.2477C20.9431 28.0473 20.6699 27.9349 20.3852 27.9349H9.61429C8.75757 27.9349 7.93594 27.5946 7.33015 26.9888C6.72436 26.383 6.38403 25.5614 6.38403 24.7046V9.62336C6.38403 8.76664 6.72436 7.94501 7.33015 7.33922C7.93594 6.73343 8.75757 6.3931 9.61429 6.3931H31.1561C32.0128 6.3931 32.8344 6.73343 33.4402 7.33922C34.046 7.94501 34.3864 8.76664 34.3864 9.62336V24.7046C34.3864 25.5614 34.046 26.383 33.4402 26.9888C32.8344 27.5946 32.0128 27.9349 31.1561 27.9349H24.6956C24.5456 27.9204 24.3943 27.9373 24.2513 27.9847C24.1084 28.0322 23.9769 28.1089 23.8653 28.2102C23.7538 28.3114 23.6647 28.4349 23.6037 28.5726C23.5427 28.7104 23.5112 28.8593 23.5112 29.01C23.5112 29.1606 23.5427 29.3096 23.6037 29.4473C23.6647 29.5851 23.7538 29.7085 23.8653 29.8098C23.9769 29.911 24.1084 29.9878 24.2513 30.0352C24.3943 30.0826 24.5456 30.0996 24.6956 30.085H31.1561C32.5831 30.085 33.9516 29.5182 34.9606 28.5092C35.9696 27.5001 36.5365 26.1316 36.5365 24.7046V9.62336C36.539 8.91635 36.4011 8.21589 36.1308 7.5626C35.8605 6.90932 35.4631 6.31622 34.9617 5.81771Z" fill="white"/>
</svg>
