<svg width="36" height="36" viewBox="0 0 36 36" fill="none" xmlns="http://www.w3.org/2000/svg">
<path fill-rule="evenodd" clip-rule="evenodd" d="M25.9627 13.2016C26.4264 13.6653 26.4264 14.4172 25.9627 14.8809L19.3127 21.5309C19.0611 21.7825 18.7101 21.908 18.356 21.8729C18.002 21.8379 17.6823 21.646 17.485 21.3499L15.7551 18.7552L11.7127 22.7976C11.249 23.2613 10.4971 23.2613 10.0334 22.7976C9.56961 22.3338 9.56961 21.582 10.0334 21.1183L15.1001 16.0516C15.3517 15.8 15.7027 15.6745 16.0567 15.7096C16.4108 15.7446 16.7304 15.9365 16.9277 16.2326L18.6577 18.8274L24.2834 13.2016C24.7472 12.7378 25.4989 12.7378 25.9627 13.2016Z" fill="#8750F7"/>
<path fill-rule="evenodd" clip-rule="evenodd" d="M20.7695 14.0413C20.7695 13.3854 21.3012 12.8538 21.957 12.8538H25.1237C25.7795 12.8538 26.3112 13.3854 26.3112 14.0413V17.2079C26.3112 17.8637 25.7795 18.3954 25.1237 18.3954C24.4679 18.3954 23.9362 17.8637 23.9362 17.2079V15.2288H21.957C21.3012 15.2288 20.7695 14.6971 20.7695 14.0413Z" fill="#8750F7"/>
<path fill-rule="evenodd" clip-rule="evenodd" d="M3.89827 3.89949C6.01118 1.78658 9.17292 0.97876 13.2484 0.97876H22.7484C26.8239 0.97876 29.9856 1.78658 32.0984 3.89949C34.2114 6.0124 35.0192 9.17414 35.0192 13.2496V22.7496C35.0192 26.8251 34.2114 29.9869 32.0984 32.0997C29.9856 34.2126 26.8239 35.0204 22.7484 35.0204H13.2484C9.17292 35.0204 6.01118 34.2126 3.89827 32.0997C1.78536 29.9869 0.977539 26.8251 0.977539 22.7496V13.2496C0.977539 9.17414 1.78536 6.0124 3.89827 3.89949ZM5.57765 5.57887C4.12806 7.02846 3.35254 9.40838 3.35254 13.2496V22.7496C3.35254 26.5908 4.12806 28.9707 5.57765 30.4204C7.02724 31.8699 9.40716 32.6454 13.2484 32.6454H22.7484C26.5895 32.6454 28.9695 31.8699 30.4192 30.4204C31.8687 28.9707 32.6442 26.5908 32.6442 22.7496V13.2496C32.6442 9.40838 31.8687 7.02846 30.4192 5.57887C28.9695 4.12928 26.5895 3.35376 22.7484 3.35376H13.2484C9.40716 3.35376 7.02724 4.12928 5.57765 5.57887Z" fill="#8750F7"/>
</svg>
