<svg width="32" height="32" viewBox="0 0 32 32" fill="none" xmlns="http://www.w3.org/2000/svg">
<path d="M27.3375 9.92498L27.425 9.82498L28.2125 9.03748L29.6375 7.61248C30.2875 6.96248 30.65 6.09998 30.65 5.18748C30.65 4.27498 30.2875 3.41248 29.6375 2.76248L29.2375 2.36248C27.9375 1.06248 25.6875 1.06248 24.3875 2.36248L22.9625 3.78748L2.71248 24.0375L2.57498 24.175L1.16248 30.8375L7.82498 29.425L27.3375 9.92498ZM25.275 3.23748C26.1 2.42498 27.525 2.41248 28.35 3.23748L28.7625 3.64998C29.175 4.06248 29.4 4.59998 29.4 5.18748C29.4 5.77498 29.175 6.31248 28.7625 6.72498L27.3375 8.14998L23.85 4.66248L25.275 3.23748ZM22.9625 5.54998L24.2625 6.84998L5.33748 25.775L4.03748 24.475L22.9625 5.54998ZM2.78748 29.2125L3.52498 25.7375L6.26248 28.475L2.78748 29.2125ZM7.52498 27.9625L6.22498 26.6625L25.15 7.73748L26.45 9.03748L7.52498 27.9625ZM9.39998 15.5875L0.537476 6.72498L6.72498 0.537476L15.5875 9.39998L12.9 12.025L12.0125 11.1375L13.775 9.37498L12.0125 7.59998L9.38748 10.2375L8.49998 9.34998L11.125 6.72498L9.36247 4.94998L7.58748 6.72498L6.69998 5.83748L8.47497 4.06248L6.71247 2.29998L2.28748 6.72498L10.275 14.7125L9.38748 15.5875H9.39998ZM31.4625 25.275L25.275 31.4625L16.4125 22.6L17.3 21.725L25.275 29.7L29.7 25.275L27.9375 23.5125L25.3 26.1375L24.4125 25.25L27.05 22.6125L25.275 20.85L23.5125 22.6125L22.625 21.725L24.3875 19.95L22.6125 18.1875L19.9875 20.8125L19.1 19.925L22.5875 16.3875L31.45 25.25L31.4625 25.275Z" fill="#8750F7"/>
</svg>
