<svg width="40" height="40" viewBox="0 0 40 40" fill="none" xmlns="http://www.w3.org/2000/svg">
<path fill-rule="evenodd" clip-rule="evenodd" d="M29.4065 16.2054C29.8677 16.6666 29.8677 17.4142 29.4065 17.8745L23.0363 24.2452C23.2253 24.6619 23.3307 25.1248 23.3307 25.6109C23.3307 27.4481 21.8369 28.9416 20.0001 28.9416C18.1641 28.9416 16.6698 27.4482 16.6698 25.6109C16.6698 23.775 18.1641 22.2803 20.0001 22.2803C20.487 22.2803 20.9491 22.3866 21.3666 22.5752L27.7365 16.2054C28.1977 15.7441 28.9452 15.7441 29.4065 16.2054ZM20.0001 14.6704C21.2985 14.6704 22.5686 14.8954 23.774 15.3382C24.3861 15.5633 25.0651 15.2494 25.2902 14.6373C25.5144 14.0252 25.201 13.3471 24.5889 13.122C23.1212 12.5828 21.5772 12.3089 20.0002 12.3089C12.6654 12.3089 6.69805 18.2762 6.69805 25.6109C6.69805 26.2633 7.22703 26.7919 7.87859 26.7919C8.53102 26.7919 9.05953 26.2633 9.05953 25.6109C9.05945 19.5789 13.9676 14.6704 20.0001 14.6704ZM35.7112 29.4165C36.0108 28.1777 36.1621 26.8973 36.1621 25.6109C36.1621 16.7 28.9118 9.44889 20.0001 9.44889C11.0888 9.44889 3.83844 16.7001 3.83844 25.6109C3.83844 26.8973 3.99016 28.1777 4.28984 29.4165C4.45359 30.0955 5.03313 30.5512 5.73102 30.5512H34.2701C34.9679 30.5512 35.5474 30.0955 35.7112 29.4165ZM33.0985 12.5133C29.5998 9.01428 24.948 7.0874 20.0001 7.0874C15.0525 7.0874 10.4012 9.0142 6.9025 12.5133C3.40383 16.012 1.47656 20.6634 1.47656 25.6109C1.47656 27.0842 1.65062 28.5511 1.99391 29.9716C2.41227 31.7029 3.94898 32.9126 5.73094 32.9126H34.27C36.0511 32.9126 37.5878 31.7029 38.0062 29.9716C38.3495 28.5502 38.5236 27.0833 38.5236 25.6109C38.5236 20.6634 36.5968 16.0121 33.0985 12.5133Z" fill="white"/>
</svg>
