<svg width="37" height="35" viewBox="0 0 37 35" fill="none" xmlns="http://www.w3.org/2000/svg">
<path d="M12.2437 23.9687C12.1288 23.968 12.0164 23.9355 11.9187 23.875L0.38747 16.8875C0.298014 16.8331 0.223663 16.7571 0.171245 16.6664C0.118826 16.5758 0.0900193 16.4734 0.08747 16.3687C0.0848553 16.2626 0.109303 16.1576 0.15851 16.0636C0.207716 15.9695 0.280059 15.8896 0.36872 15.8312L6.29372 11.9187C6.39375 11.8554 6.5097 11.8218 6.6281 11.8218C6.74649 11.8218 6.86245 11.8554 6.96247 11.9187L18.6687 18.9562C18.7592 19.0123 18.8338 19.0905 18.8856 19.1835C18.9373 19.2764 18.9645 19.3811 18.9645 19.4875C18.9645 19.5939 18.9373 19.6985 18.8856 19.7915C18.8338 19.8845 18.7592 19.9627 18.6687 20.0187L12.5812 23.875C12.48 23.9378 12.3629 23.9703 12.2437 23.9687ZM1.88122 16.3312L12.2375 22.5812L17.1562 19.4562L6.65622 13.1812L1.88122 16.3312Z" fill="#8750F7"/>
<path d="M24.5813 23.9688C24.4642 23.9692 24.3495 23.9367 24.25 23.875L18.15 20.0188C18.0596 19.9627 17.9849 19.8845 17.9332 19.7915C17.8814 19.6986 17.8542 19.5939 17.8542 19.4875C17.8542 19.3811 17.8814 19.2765 17.9332 19.1835C17.9849 19.0905 18.0596 19.0123 18.15 18.9563L29.875 11.9063C29.9743 11.8442 30.0891 11.8113 30.2063 11.8113C30.3234 11.8113 30.4382 11.8442 30.5375 11.9063L36.4625 15.8188C36.5512 15.8771 36.6235 15.9571 36.6727 16.0511C36.7219 16.1452 36.7464 16.2502 36.7438 16.3563C36.7412 16.461 36.7124 16.5633 36.66 16.654C36.6076 16.7446 36.5332 16.8206 36.4438 16.875L24.9063 23.875C24.8086 23.9356 24.6961 23.968 24.5813 23.9688ZM19.675 19.5063L24.5875 22.6313L34.9438 16.3813L30.175 13.2563L19.675 19.5063Z" fill="#8750F7"/>
<path d="M6.63749 13.0625C6.52506 13.0645 6.41443 13.0341 6.31874 12.975C0.437494 9.43752 0.299994 9.26252 0.212494 9.12502C0.16033 9.05512 0.123372 8.97508 0.103997 8.89005C0.0846216 8.80501 0.083258 8.71686 0.0999939 8.63127C0.116741 8.54635 0.150943 8.46584 0.200433 8.39483C0.249923 8.32382 0.313622 8.26387 0.387494 8.21877L12.1187 1.05002C12.2181 0.987936 12.3329 0.955017 12.45 0.955017C12.5671 0.955017 12.6819 0.987936 12.7812 1.05002L18.8187 4.94377C18.9086 5.00137 18.9821 5.08101 19.0325 5.17509C19.0828 5.26918 19.1082 5.37459 19.1062 5.48127C19.1041 5.58761 19.0748 5.69163 19.0212 5.7835C18.9676 5.87537 18.8915 5.95205 18.8 6.00627L6.92499 12.975C6.8377 13.0271 6.73902 13.0572 6.63749 13.0625ZM1.86874 8.79377C2.98124 9.49377 5.08749 10.775 6.64374 11.7125L17.2687 5.46252L12.4125 2.33752L1.86874 8.79377Z" fill="#8750F7"/>
<path d="M30.1875 13.0625C30.0753 13.0625 29.9652 13.0322 29.8687 12.975L18.1624 6.00001C18.0692 5.94469 17.9919 5.86604 17.9382 5.7718C17.8845 5.67756 17.8562 5.57097 17.8562 5.46251C17.8562 5.35404 17.8845 5.24745 17.9382 5.15321C17.9919 5.05897 18.0692 4.98032 18.1624 4.92501L24.1562 1.38751C24.2512 1.33265 24.359 1.30377 24.4687 1.30377C24.5784 1.30377 24.6862 1.33265 24.7812 1.38751L36.0812 8.11876C36.1703 8.17512 36.2436 8.2531 36.2945 8.34544C36.3453 8.43778 36.372 8.54147 36.372 8.64688C36.372 8.75229 36.3453 8.85598 36.2945 8.94832C36.2436 9.04066 36.1703 9.11864 36.0812 9.17501L30.5062 12.9563C30.4127 13.0223 30.3018 13.0592 30.1875 13.0625ZM19.7062 5.47501L30.1687 11.725L34.5937 8.71876L24.4687 2.69376L19.7062 5.47501Z" fill="#8750F7"/>
<path d="M18.3437 34.3C18.2342 34.3008 18.1265 34.2727 18.0312 34.2188L6.1937 27.25C6.1004 27.1947 6.02311 27.116 5.96941 27.0218C5.91572 26.9276 5.88747 26.821 5.88745 26.7125V19.8375H7.13745V26.3813L18.3375 32.95L29.8375 26V19.7812H31.0875V26.3375C31.0881 26.4454 31.0608 26.5516 31.0082 26.6457C30.9556 26.7399 30.8796 26.8189 30.7875 26.875L18.6687 34.2125C18.5696 34.2689 18.4577 34.299 18.3437 34.3Z" fill="#8750F7"/>
<path d="M17.8624 19.7812H19.1124V33.3625H17.8624V19.7812Z" fill="#8750F7"/>
</svg>
