<svg width="36" height="36" viewBox="0 0 36 36" fill="none" xmlns="http://www.w3.org/2000/svg">
<path d="M33.75 6.75H28.26L26.9475 3.4725L26.25 3H9.75L9.0525 3.4725L7.74 6.75H2.25L1.5 7.5V27L2.25 27.75H6.705L6 32.13L6.75 33H29.25L30 32.13L29.295 27.75H33.75L34.5 27V7.5L33.75 6.75ZM10.26 4.5H25.74L26.64 6.75H9.39L10.26 4.5ZM7.6275 31.5L8.3175 27.12L9.6375 18.75H26.3625L27.675 27.12L28.3725 31.5H7.6275ZM33 26.25H29.0625L27.8775 18.75H30V17.25H6V18.75H8.1225L6.9375 26.25H3V8.25H33V26.25Z" fill="#8750F7"/>
<path d="M13.5 12H22.5V13.5H13.5V12Z" fill="#8750F7"/>
</svg>
