<svg width="40" height="40" viewBox="0 0 40 40" fill="none" xmlns="http://www.w3.org/2000/svg">
<g clip-path="url(#clip0_570_65)">
<path d="M38.5 24.3655V16.6345L35.4713 16.0731C35.1613 15.0219 34.7408 14.0074 34.2164 13.0444L35.9613 10.5055L30.4945 5.03894L27.9556 6.78357C26.9926 6.25925 25.9781 5.83875 24.9269 5.52866L24.3655 2.5H16.6347L16.0731 5.52866C15.0219 5.83875 14.0076 6.25925 13.0444 6.78357L10.5055 5.03894L5.03894 10.5055L6.78384 13.0444C6.25925 14.0076 5.83902 15.0219 5.52866 16.0731L2.5 16.6345V24.3655L5.52866 24.9269C5.83875 25.9781 6.25925 26.9924 6.78357 27.9556L5.03894 30.4945L10.5055 35.9611L13.0444 34.2162C14.0074 34.7408 15.0219 35.1613 16.0731 35.4713L16.6345 38.5H24.3655L24.9269 35.4713C25.9781 35.1613 26.9924 34.7408 27.9556 34.2164L30.4945 35.9611L35.9611 30.4945L34.2162 27.9556C34.7408 26.9926 35.161 25.9781 35.4713 24.9269L38.5 24.3655ZM33.7671 23.0974L33.6037 23.7572C33.2804 25.0626 32.7638 26.309 32.0686 27.4618L31.7176 28.0438L33.2293 30.2435L30.2435 33.229L28.0438 31.7173L27.4618 32.0686C26.309 32.7638 25.0629 33.2801 23.7572 33.6037L23.0977 33.7671L22.6113 36.3906H18.3887L17.9026 33.7671L17.2428 33.6037C15.9374 33.2804 14.691 32.7638 13.5382 32.0686L12.9562 31.7176L10.7565 33.2293L7.77069 30.2435L9.28241 28.0438L8.9314 27.4618C8.23624 26.309 7.7196 25.0626 7.39633 23.7572L7.23291 23.0977L4.60938 22.611V18.3887L7.23291 17.9026L7.39633 17.2428C7.7196 15.9374 8.23624 14.691 8.9314 13.5382L9.28241 12.9562L7.77069 10.7565L10.7565 7.77097L12.9562 9.28268L13.5382 8.9314C14.691 8.23624 15.9371 7.71988 17.2428 7.39633L17.9026 7.23291L18.389 4.60938H22.6113L23.0977 7.23291L23.7572 7.39633C25.0626 7.7196 26.309 8.23624 27.4618 8.9314L28.0438 9.28241L30.2435 7.77069L33.2293 10.7565L31.7176 12.9562L32.0686 13.5382C32.7638 14.691 33.2804 15.9371 33.6037 17.2428L33.7671 17.9026L36.3906 18.389V22.6113L33.7671 23.0974Z" fill="#8750F7"/>
<path d="M20.5 10.375C14.917 10.375 10.375 14.917 10.375 20.5C10.375 26.083 14.917 30.625 20.5 30.625C26.083 30.625 30.625 26.083 30.625 20.5C30.625 14.917 26.083 10.375 20.5 10.375ZM15.5287 26.7831C15.8163 25.3098 17.1069 24.2159 18.6565 24.2159H20.4945C20.4964 24.2159 20.4984 24.2161 20.5 24.2161C20.5016 24.2161 20.5036 24.2159 20.5055 24.2159H22.3435C23.8931 24.2159 25.1837 25.3098 25.4713 26.7831C24.1043 27.8672 22.3765 28.5156 20.5 28.5156C18.6235 28.5156 16.8957 27.8672 15.5287 26.7831ZM20.5055 22.1068H20.4945C19.0847 22.1037 17.9388 20.9559 17.9388 19.5456C17.9388 18.1333 19.0877 16.9844 20.5 16.9844C21.9123 16.9844 23.0612 18.1333 23.0612 19.5456C23.0612 20.9559 21.9153 22.1037 20.5055 22.1068ZM27.094 25.0516C26.4958 23.8387 25.4493 22.895 24.1705 22.4284C24.7959 21.6338 25.1706 20.6329 25.1706 19.5456C25.1706 16.9704 23.0755 14.875 20.5 14.875C17.9245 14.875 15.8294 16.9704 15.8294 19.5456C15.8294 20.6329 16.2041 21.6338 16.8295 22.4284C15.5507 22.895 14.5042 23.8387 13.906 25.0516C13.0101 23.7577 12.4844 22.1891 12.4844 20.5C12.4844 16.0802 16.0802 12.4844 20.5 12.4844C24.9198 12.4844 28.5156 16.0802 28.5156 20.5C28.5156 22.1891 27.9899 23.7577 27.094 25.0516Z" fill="#8750F7"/>
</g>
<defs>
<clipPath id="clip0_570_65">
<rect width="36" height="36" fill="white" transform="translate(2.5 2.5)"/>
</clipPath>
</defs>
</svg>
