<svg width="40" height="40" viewBox="0 0 40 40" fill="none" xmlns="http://www.w3.org/2000/svg">
<path d="M34.7109 5.96128C34.2198 5.47842 33.6356 5.09572 32.9921 4.83537C32.3486 4.57501 31.6587 4.44219 30.9623 4.44461H9.74356C8.33799 4.44461 6.98999 4.99057 5.9961 5.96237C5.00221 6.93417 4.44385 8.25222 4.44385 9.62655L4.44385 30.3738C4.44385 31.7481 5.00221 33.0661 5.9961 34.0379C6.98999 35.0097 8.33799 35.5557 9.74356 35.5557H30.9623C32.3679 35.5557 33.7159 35.0097 34.7097 34.0379C35.7036 33.0661 36.262 31.7481 36.262 30.3738V9.62655C36.2645 8.94563 36.1286 8.271 35.8624 7.64181C35.5961 7.01262 35.2047 6.4414 34.7109 5.96128ZM34.1441 30.364C34.1441 31.1891 33.8089 31.9805 33.2122 32.5639C32.6155 33.1474 31.8062 33.4751 30.9623 33.4751H9.74356C8.89969 33.4751 8.09038 33.1474 7.49367 32.5639C6.89697 31.9805 6.56174 31.1891 6.56174 30.364V9.62655C6.56174 8.80143 6.89697 8.01011 7.49367 7.42667C8.09038 6.84322 8.89969 6.51544 9.74356 6.51544H30.9623C31.8062 6.51544 32.6155 6.84322 33.2122 7.42667C33.8089 8.01011 34.1441 8.80143 34.1441 9.62655V30.364Z" fill="white"/>
<path d="M11.8712 11.1626H15.0531C15.3162 11.1376 15.5604 11.0178 15.7381 10.8264C15.9158 10.6349 16.0142 10.3857 16.0142 10.1272C16.0142 9.86868 15.9158 9.61943 15.7381 9.42802C15.5604 9.2366 15.3162 9.11674 15.0531 9.09178H11.8712C11.7236 9.07777 11.5745 9.09412 11.4337 9.13978C11.2928 9.18544 11.1633 9.2594 11.0534 9.35691C10.9436 9.45442 10.8558 9.57332 10.7957 9.70598C10.7356 9.83863 10.7046 9.98211 10.7046 10.1272C10.7046 10.2723 10.7356 10.4157 10.7957 10.5484C10.8558 10.6811 10.9436 10.8 11.0534 10.8975C11.1633 10.995 11.2928 11.0689 11.4337 11.1146C11.5745 11.1603 11.7236 11.1766 11.8712 11.1626Z" fill="white"/>
<path d="M26.3194 25.3764C26.7702 24.7847 27.1257 24.129 27.3734 23.432C27.4418 23.3001 27.4808 23.1555 27.4876 23.0078C27.4944 22.86 27.4689 22.7126 27.4128 22.5752C27.3567 22.4379 27.2713 22.3138 27.1623 22.2113C27.0533 22.1088 26.9232 22.0301 26.7807 21.9807C26.6381 21.9312 26.4864 21.912 26.3357 21.9244C26.185 21.9367 26.0387 21.9804 25.9066 22.0524C25.7745 22.1244 25.6596 22.2232 25.5696 22.342C25.4796 22.4609 25.4166 22.5972 25.3847 22.7417C25.0611 23.6397 24.4907 24.4331 23.7362 25.0348C22.9817 25.6366 22.0722 26.0235 21.1076 26.1531C20.143 26.2827 19.1605 26.1499 18.2679 25.7694C17.3754 25.3888 16.6074 24.7752 16.0481 23.9959L19.3592 21.2931L21.8847 22.9167C22.078 23.0423 22.3079 23.1026 22.5394 23.0886C22.771 23.0745 22.9915 22.9869 23.1674 22.8389L29.531 17.5015C29.6484 17.4164 29.7465 17.3086 29.8194 17.1848C29.8923 17.061 29.9383 16.9239 29.9546 16.7819C29.9709 16.64 29.9571 16.4963 29.9141 16.3597C29.8711 16.2232 29.7999 16.0968 29.7048 15.9884C29.6096 15.88 29.4927 15.7919 29.3612 15.7297C29.2298 15.6674 29.0866 15.6322 28.9406 15.6264C28.7947 15.6206 28.649 15.6442 28.5128 15.6959C28.3766 15.7475 28.2527 15.826 28.1489 15.9265L26.6475 17.1903C25.8544 15.9351 24.6882 14.9466 23.3049 14.3571C21.9216 13.7676 20.3871 13.6053 18.9069 13.8918C17.4266 14.1783 16.0712 14.9 15.0219 15.9603C13.9725 17.0207 13.2794 18.369 13.0353 19.8251C12.9893 20.0971 13.0556 20.3758 13.2197 20.6C13.3838 20.8243 13.6322 20.9756 13.9103 21.0209C14.1867 21.0635 14.4691 20.9989 14.6975 20.8409C14.926 20.6829 15.0823 20.444 15.1333 20.1751C15.3167 19.1099 15.836 18.1274 16.6185 17.3649C17.401 16.6025 18.4076 16.0982 19.4976 15.9225C20.5876 15.7468 21.7065 15.9086 22.6978 16.3852C23.6892 16.8618 24.5034 17.6294 25.0268 18.5806L22.3918 20.7778L19.8762 19.1445C19.6865 19.0208 19.4609 18.9605 19.2332 18.9728C19.0055 18.985 18.788 19.0692 18.6134 19.2126L11.1859 25.2501C10.9707 25.4261 10.8354 25.6781 10.8093 25.9512C10.7832 26.2243 10.8685 26.4965 11.0467 26.7084C11.2281 26.9166 11.4856 27.0473 11.7641 27.0727C12.0427 27.0981 12.3204 27.0162 12.5381 26.8445L14.3876 25.3473C14.9682 26.1163 15.6993 26.7648 16.5385 27.2552C17.3777 27.7455 18.3082 28.0679 19.2759 28.2036C20.2436 28.3393 21.2292 28.2856 22.1755 28.0456C23.1218 27.8056 24.0099 27.3841 24.7881 26.8056L28.0893 30.0334C28.2899 30.2252 28.5594 30.3326 28.84 30.3326C29.1206 30.3326 29.39 30.2252 29.5907 30.0334C29.7892 29.8384 29.9007 29.5745 29.9007 29.2994C29.9007 29.0242 29.7892 28.7603 29.5907 28.5653L26.3194 25.3764Z" fill="white"/>
</svg>
