<svg width="64" height="64" viewBox="0 0 64 64" fill="none" xmlns="http://www.w3.org/2000/svg">
<path d="M10.8032 0H53.197C59.6244 0 64.821 5.19661 64.821 11.6241V52.3769C64.821 58.8043 59.6244 64.001 53.1969 64.001H10.8032C4.37569 64.0009 -0.820923 58.8043 -0.820923 52.3767V11.6241C-0.820923 5.19661 4.37569 0 10.8032 0Z" fill="#001834"/>
<path d="M13.9485 44.8827V16.7387C13.9485 16.5473 14.0305 16.4378 14.222 16.4378C14.687 16.4378 15.1245 16.4378 15.7536 16.4105C16.4101 16.3832 17.0938 16.3832 17.8323 16.3557C18.5707 16.3283 19.3639 16.3284 20.2118 16.301C21.0596 16.2737 21.8801 16.2737 22.7007 16.2737C24.9434 16.2737 26.8033 16.5471 28.335 17.1215C29.7025 17.5865 30.9606 18.3523 32 19.3642C32.8753 20.2395 33.559 21.3062 33.9966 22.4822C34.4068 23.631 34.6257 24.807 34.6257 26.0378C34.6257 28.39 34.0786 30.3318 32.9846 31.8635C31.8907 33.3952 30.359 34.5439 28.5811 35.2004C26.7212 35.8841 24.6699 36.1302 22.4272 36.1302C21.7708 36.1302 21.3332 36.1302 21.0596 36.1029C20.7861 36.0756 20.4032 36.0756 19.8836 36.0756V44.8552C19.9109 45.0466 19.7742 45.2107 19.5827 45.2382C19.5554 45.2382 19.5279 45.2382 19.4733 45.2382H14.2767C14.0578 45.2382 13.9485 45.1288 13.9485 44.8827ZM19.911 21.7166V30.9064C20.294 30.9338 20.6495 30.9612 20.9777 30.9612H22.4273C24.3159 30.9612 26.4971 30.5173 27.8153 29.0194C28.9498 27.7301 28.9531 25.1734 28.0342 23.768C26.9434 22.0997 24.7621 21.6163 22.8922 21.662C22.181 21.662 21.5521 21.662 21.0323 21.6893C20.4854 21.6618 20.1024 21.6891 19.911 21.7166Z" fill="#00A9FF"/>
<path d="M51.6926 29.238C50.8721 28.8004 49.9968 28.4995 49.0669 28.3081C48.055 28.0892 47.0429 27.9526 46.0037 27.9526C45.4566 27.9253 44.8823 28.0073 44.3627 28.144C44.0071 28.226 43.7062 28.4174 43.5148 28.691C43.378 28.9099 43.296 29.1834 43.296 29.4295C43.296 29.6757 43.4053 29.9218 43.5694 30.1407C43.8156 30.4416 44.1438 30.6877 44.4993 30.8791C45.1284 31.2074 45.7849 31.5083 46.4413 31.7817C47.9182 32.274 49.3404 32.9578 50.6533 33.7783C51.5558 34.3527 52.2943 35.1184 52.8139 36.0484C53.2515 36.9237 53.4703 37.8809 53.443 38.8655C53.4703 40.1511 53.0875 41.4365 52.3764 42.5032C51.6106 43.5971 50.5439 44.4451 49.3131 44.9374C47.973 45.5118 46.3319 45.8127 44.3627 45.8127C43.1046 45.8127 41.8738 45.7033 40.643 45.4572C39.6857 45.2931 38.7285 44.9922 37.8532 44.5819C37.6618 44.4725 37.525 44.281 37.5523 44.0623V39.3032C37.5523 39.2212 37.5796 39.1118 37.6617 39.0571C37.7437 39.0023 37.8258 39.0298 37.9078 39.0844C38.9745 39.7135 40.0959 40.1511 41.2993 40.4245C42.3386 40.698 43.4326 40.8348 44.5266 40.8348C45.566 40.8348 46.3045 40.698 46.7968 40.4518C47.2344 40.2604 47.5353 39.7954 47.5353 39.3031C47.5353 38.9202 47.3164 38.5646 46.8788 38.2091C46.4413 37.8536 45.5387 37.4433 44.1984 36.9236C42.8035 36.4313 41.518 35.7749 40.3146 34.9543C39.4668 34.3527 38.7557 33.5594 38.236 32.6296C37.7985 31.7543 37.5796 30.7971 37.6069 29.8398C37.6069 28.6637 37.9351 27.5423 38.5368 26.5304C39.2205 25.4364 40.2326 24.5611 41.4086 24.0141C42.6942 23.3576 44.3078 23.0567 46.2497 23.0567C47.3712 23.0567 48.5199 23.1388 49.6412 23.3029C50.4617 23.4122 51.2549 23.6311 51.9934 23.932C52.1028 23.9593 52.2122 24.0688 52.2669 24.1782C52.2942 24.2875 52.3216 24.397 52.3216 24.5064V28.9645C52.3216 29.0739 52.2669 29.1834 52.1848 29.238C51.9388 29.2927 51.802 29.2927 51.6926 29.238Z" fill="#00A9FF"/>
</svg>
