<svg width="64" height="64" viewBox="0 0 64 64" fill="none" xmlns="http://www.w3.org/2000/svg">
<g clip-path="url(#clip0_987_842)">
<path d="M53.5172 0H10.4828C4.08387 0 -1.10345 5.18732 -1.10345 11.5862V52.4138C-1.10345 58.8127 4.08387 64 10.4828 64H53.5172C59.9161 64 65.1034 58.8127 65.1034 52.4138V11.5862C65.1034 5.18732 59.9161 0 53.5172 0Z" fill="#49021F"/>
<path d="M23.1724 18.2069V47.0345C23.1724 47.3103 23.0483 47.4483 22.8028 47.4483H18.0248C17.7766 47.4483 17.6552 47.3103 17.6552 47.0345V18.2069C17.6477 18.1566 17.6522 18.1053 17.6681 18.0571C17.6841 18.0088 17.7111 17.965 17.747 17.9291C17.7829 17.8932 17.8268 17.8661 17.875 17.8502C17.9233 17.8342 17.9746 17.8298 18.0248 17.8372H22.8497C23.0648 17.8372 23.1724 17.9614 23.1724 18.2069Z" fill="#FF3366"/>
<path d="M37.4731 48C34.2704 48 31.8069 47.0924 29.8924 45.28C27.9779 43.4676 27.0179 40.789 27.0179 37.2414C27.0179 34.0175 28.0469 31.3692 30.1048 29.2966C31.1586 28.2075 32.425 27.3468 33.8254 26.7678C35.2259 26.1889 36.7304 25.904 38.2455 25.931C38.9231 25.919 39.5996 25.9913 40.2593 26.1462V16.811C40.2543 16.7761 40.2575 16.7404 40.2686 16.7069C40.2797 16.6733 40.2984 16.6428 40.3232 16.6177C40.3481 16.5926 40.3784 16.5736 40.4118 16.5621C40.4452 16.5507 40.4808 16.5471 40.5159 16.5517H45.5614C45.7048 16.5517 45.7766 16.6372 45.7766 16.811V42.949C45.7766 44.0524 46.2538 44.9931 46.3283 45.7986C46.3435 45.8784 46.3303 45.961 46.291 46.032C46.2517 46.1031 46.1888 46.1581 46.1131 46.1876C43.6359 47.3959 40.389 48 37.4731 48ZM40.2593 43.7269V30.3835C40.08 30.069 39.131 29.7931 38.16 29.7931C37.356 29.7725 36.5574 29.9313 35.8225 30.2582C35.0876 30.5851 34.4348 31.0718 33.9117 31.6828C32.6394 33.1729 31.953 35.0753 31.9807 37.0345C31.9807 39.451 32.8083 41.1062 33.8897 42.2566C34.4002 42.8425 35.0294 43.3133 35.7357 43.6376C36.4419 43.962 37.2091 44.1325 37.9862 44.1379C39.0179 44.1379 40.0248 43.9835 40.2593 43.7269Z" fill="#FF3366"/>
</g>
<defs>
<clipPath id="clip0_987_842">
<rect width="64" height="64" fill="white"/>
</clipPath>
</defs>
</svg>
