<svg width="64" height="64" viewBox="0 0 64 64" fill="none" xmlns="http://www.w3.org/2000/svg">
<g clip-path="url(#clip0_987_815)">
<path d="M10.8033 0H53.1967C59.6241 0 64.8206 5.19656 64.8206 11.624V52.3763C64.8206 58.8038 59.6241 64.0003 53.1967 64.0003H10.8033C4.37588 64.0003 -0.820679 58.8036 -0.820679 52.3763V11.624C-0.820679 5.19656 4.37588 0 10.8033 0Z" fill="#00005B"/>
<path d="M23.5214 16.2736C25.7641 16.2736 27.6239 16.5471 29.1555 17.1214C31.7275 18.0859 33.8427 19.8635 34.8172 22.4822C35.2274 23.6309 35.4463 24.807 35.4463 26.0378C35.4463 30.0704 33.3186 33.754 29.4018 35.2003C27.542 35.884 25.4907 36.1301 23.2479 36.1301C22.5916 36.1301 22.1539 36.1301 21.8804 36.1028C21.607 36.0755 21.224 36.0755 20.7044 36.0755V44.8551C20.7317 45.0465 20.5951 45.2106 20.4035 45.238C20.3762 45.238 20.3488 45.238 20.2942 45.238H15.0976C14.8788 45.238 14.7694 45.1287 14.7694 44.8825V16.7385C14.7694 16.5471 14.8515 16.4376 15.0429 16.4376C15.5079 16.4376 15.9454 16.4376 16.5745 16.4103L23.5214 16.2736ZM20.7316 21.7163V30.9061C21.1145 30.9334 21.47 30.9609 21.7982 30.9609H23.2478C24.3145 30.9609 25.3811 30.7968 26.393 30.4686C28.3517 29.8333 29.4837 28.2398 29.4837 26.202C29.4837 24.4952 28.5816 22.8313 26.9402 22.2088C25.9283 21.7985 24.8342 21.6344 23.7128 21.6617C23.0017 21.6617 22.3726 21.6617 21.853 21.689C21.3059 21.6616 20.923 21.689 20.7316 21.7163Z" fill="#9999FF"/>
<path d="M39.2753 23.3027H44.0616C44.3351 23.3027 44.5539 23.4941 44.636 23.7403C44.718 23.9591 44.7728 24.1778 44.8001 24.424C44.8548 24.6974 44.9094 24.9983 44.9369 25.2718C44.9642 25.5727 44.9916 25.9009 44.9916 26.2564C45.8121 25.2991 46.7967 24.5059 47.9181 23.9042C49.1763 23.1931 50.6259 22.8376 52.0754 22.8376C52.2668 22.8103 52.4309 22.9469 52.4584 23.1385V23.2478V28.5812C52.4584 28.8 52.3216 28.8821 52.0208 28.8821C51.0362 28.8548 50.0242 28.9368 49.0669 29.1555C48.2737 29.3196 47.508 29.5658 46.7694 29.894C46.2498 30.1401 45.7575 30.4683 45.3746 30.9059V44.8547C45.3746 45.1281 45.2652 45.2376 45.019 45.2376H39.631C39.4121 45.2649 39.2207 45.1283 39.1934 44.9094C39.1934 44.8821 39.1934 44.8274 39.1934 44.8001V29.6478C39.1934 28.9914 39.1934 28.3076 39.1661 27.5966C39.1388 26.8854 39.1388 26.1743 39.1114 25.4633C39.1114 24.8342 39.0566 24.2326 39.002 23.6035C38.9747 23.4667 39.0567 23.33 39.1934 23.3026C39.1933 23.2753 39.2479 23.2753 39.2753 23.3027Z" fill="#9999FF"/>
</g>
<defs>
<clipPath id="clip0_987_815">
<rect width="64" height="64" fill="white"/>
</clipPath>
</defs>
</svg>
