<svg width="64" height="64" viewBox="0 0 64 64" fill="none" xmlns="http://www.w3.org/2000/svg">
<g clip-path="url(#clip0_987_736)">
<path d="M11.3333 0.800049H52.6666C58.9258 0.800049 64 5.8742 64 12.1333V51.8667C64 58.1259 58.9258 63.2001 52.6666 63.2001H11.3333C5.07416 63.1999 0 58.1259 0 51.8667V12.1333C0 5.87408 5.07416 0.800049 11.3333 0.800049Z" fill="#00005B"/>
<path d="M25.7107 38.1333H15.793L13.7752 44.4136C13.7186 44.6494 13.5023 44.8116 13.2599 44.8H8.23677C7.95034 44.8 7.85011 44.6425 7.93622 44.3277L16.5229 19.7003C16.6088 19.4427 16.6946 19.1909 16.7805 18.8615C16.8929 18.2887 16.9504 17.7065 16.9522 17.1228C16.9316 16.9774 17.0325 16.8428 17.1779 16.8222C17.2027 16.8187 17.2279 16.8187 17.2527 16.8222H24.0792C24.279 16.8222 24.3936 16.8938 24.4228 17.0369L34.1685 44.3706C34.2544 44.657 34.1685 44.8002 33.911 44.8H28.3296C28.1312 44.822 27.9474 44.6934 27.9003 44.4994L25.7107 38.1333ZM20.7303 21.7182H20.6873L17.3386 32.8379H24.1221L20.7303 21.7182Z" fill="#9999FF"/>
<path d="M49.9682 35.6889H41.5104C41.614 36.5257 41.8919 37.3316 42.3262 38.0543C42.8063 38.77 43.4853 39.3297 44.2796 39.6643C45.3561 40.1301 46.5203 40.3583 47.6929 40.3333C48.6232 40.3154 49.5501 40.2137 50.4621 40.0292C51.2778 39.9191 52.0772 39.7107 52.843 39.4086C52.9859 39.2947 53.0577 39.3658 53.0577 39.6233V43.702C53.0648 43.8131 53.0426 43.9242 52.9932 44.024C52.9441 44.1021 52.878 44.1681 52.8 44.2172C51.9507 44.5934 51.0568 44.8597 50.1402 45.0097C48.8948 45.2436 47.629 45.3515 46.3621 45.3317C44.3294 45.3317 42.6263 45.0169 41.2529 44.3872C39.9546 43.8152 38.8079 42.9478 37.9042 41.8542C37.0601 40.8237 36.4322 39.6336 36.058 38.3552C35.6875 37.0932 35.4996 35.7848 35.4999 34.4697C35.4959 33.0337 35.7206 31.6061 36.1654 30.2408C36.5938 28.9089 37.2713 27.6706 38.1618 26.5915C40.1243 24.2135 42.8253 23.2225 45.8468 23.2225C48.4506 23.2225 51.1214 24.0848 52.802 26.1621C53.5054 27.0697 54.0431 28.0944 54.3905 29.1889C54.7288 30.2436 54.9025 31.3441 54.9058 32.4518C54.9058 33.0817 54.8843 33.6542 54.8413 34.1692C54.7984 34.6843 54.7627 35.0564 54.7341 35.2854C54.7109 35.4813 54.5449 35.6289 54.3477 35.6289C54.1759 35.6289 53.8825 35.6504 53.4676 35.6933C53.0523 35.7362 52.5372 35.7648 51.9221 35.7791C51.3058 35.7936 50.6552 35.6889 49.9682 35.6889ZM41.5104 31.7777H47.1346C47.8216 31.7777 48.3296 31.7706 48.6588 31.7562C48.879 31.7342 49.0917 31.6638 49.2815 31.5499V31.2922C49.2729 30.9564 49.215 30.6238 49.1098 30.3048C48.6337 28.7993 47.2101 27.7976 45.6322 27.8577C44.1559 27.7684 42.7663 28.56 42.0902 29.8754C41.7958 30.4743 41.6001 31.1166 41.5104 31.7777Z" fill="#9999FF"/>
</g>
<defs>
<clipPath id="clip0_987_736">
<rect width="64" height="64" fill="white"/>
</clipPath>
</defs>
</svg>
