<svg width="64" height="64" viewBox="0 0 64 64" fill="none" xmlns="http://www.w3.org/2000/svg">
<g clip-path="url(#clip0_987_765)">
<path d="M10.8032 0H53.197C59.6244 0 64.821 5.19661 64.821 11.6241V52.3769C64.821 58.8043 59.6244 64.001 53.1969 64.001H10.8032C4.37569 64.0009 -0.820923 58.8043 -0.820923 52.3767V11.6241C-0.820923 5.19661 4.37569 0 10.8032 0Z" fill="#001834"/>
<path d="M33.6412 45.2382H16.3008C15.9999 45.2382 15.8632 45.0741 15.8632 44.7459V16.7934C15.8359 16.602 15.9726 16.4379 16.1641 16.4105H16.2735H21.6342C21.771 16.3832 21.9351 16.4925 21.9351 16.6293V16.7114V39.6861H34.5712C34.8446 39.6861 34.9267 39.8229 34.8721 40.069L34.0789 44.8281C34.0789 44.9649 33.9968 45.0742 33.9147 45.1563C33.8326 45.2109 33.7505 45.2382 33.6412 45.2382Z" fill="#00A9FF"/>
<path d="M38.0173 23.3576H42.8036C43.0771 23.3576 43.296 23.549 43.378 23.7952C43.4874 23.9866 43.5694 24.2054 43.5969 24.4243C43.6516 24.6978 43.7062 24.9987 43.7337 25.2721C43.761 25.573 43.7884 25.9012 43.7884 26.2568C44.6089 25.2994 45.5935 24.5064 46.715 23.9045C47.9731 23.2208 49.368 22.8926 50.7903 22.9199C50.9817 22.8926 51.1458 23.0293 51.1732 23.2208V23.3302V28.6636C51.1732 28.8824 51.0364 28.9645 50.7357 28.9645C48.9578 28.8551 47.1801 29.1833 45.5664 29.8944C45.0193 30.1405 44.4997 30.4687 44.0894 30.9063V44.8552C44.0894 45.1287 43.9801 45.2382 43.7339 45.2382H38.4005C38.1817 45.2655 37.9902 45.1288 37.9629 44.91C37.9629 44.8827 37.9629 44.8279 37.9629 44.8006V29.6482C37.9629 28.9918 37.9629 28.3081 37.9356 27.5969C37.9083 26.8857 37.9083 26.1747 37.8809 25.4635C37.8536 24.8619 37.7988 24.2601 37.7168 23.6584C37.6895 23.5216 37.7715 23.3849 37.9082 23.3575C37.9352 23.3302 37.9627 23.3302 38.0173 23.3576Z" fill="#00A9FF"/>
</g>
<defs>
<clipPath id="clip0_987_765">
<rect width="64" height="64" fill="white"/>
</clipPath>
</defs>
</svg>
