<svg width="64" height="64" viewBox="0 0 64 64" fill="none" xmlns="http://www.w3.org/2000/svg">
<g clip-path="url(#clip0_987_698)">
<path d="M10.8032 0H53.197C59.6244 0 64.821 5.19661 64.821 11.6241V52.3769C64.821 58.8043 59.6244 64.001 53.1969 64.001H10.8032C4.37569 64.0009 -0.820923 58.8043 -0.820923 52.3767V11.6241C-0.820923 5.19661 4.37569 0 10.8032 0Z" fill="#390000"/>
<path d="M30.988 38.4005H20.8135L18.7349 44.8279C18.6802 45.0741 18.4614 45.2382 18.2153 45.2109H13.0733C12.7724 45.2109 12.6903 45.0468 12.7724 44.7186L21.5793 19.3644C21.6614 19.0909 21.7434 18.79 21.8528 18.4618C21.9621 17.8874 22.0169 17.2858 22.0169 16.684C21.9896 16.5472 22.0989 16.4105 22.2357 16.3831H22.3178H29.3195C29.5384 16.3831 29.6478 16.4651 29.6751 16.6019L39.6581 44.7732C39.7402 45.0741 39.6581 45.2108 39.3847 45.2108H33.6683C33.4769 45.2381 33.2854 45.1014 33.2308 44.9099L30.988 38.4005ZM22.3998 32.8483H29.347L25.846 21.443L22.3998 32.8483Z" fill="#FF9A00"/>
<path d="M45.6207 21.0602C44.7182 21.0875 43.8429 20.732 43.1865 20.1028C42.5574 19.4191 42.2292 18.5165 42.2566 17.5865C42.2293 16.6566 42.5848 15.7814 43.2412 15.1523C43.8976 14.5232 44.7729 14.1949 45.6755 14.1949C46.7422 14.1949 47.5627 14.5232 48.1644 15.1523C48.766 15.8087 49.0943 16.684 49.0669 17.5865C49.0943 18.5164 48.766 19.419 48.1096 20.1028C47.4806 20.7593 46.5506 21.1148 45.6207 21.0602Z" fill="#FF9A00"/>
<path d="M42.5575 44.8006V23.7405C42.5575 23.467 42.6669 23.3575 42.913 23.3575H48.3285C48.5746 23.3575 48.684 23.4943 48.684 23.7405V44.8006C48.684 45.1015 48.5746 45.2382 48.3285 45.2382H42.9678C42.6942 45.2382 42.5575 45.0741 42.5575 44.8006Z" fill="#FF9A00"/>
</g>
<defs>
<clipPath id="clip0_987_698">
<rect width="64" height="64" fill="white"/>
</clipPath>
</defs>
</svg>
