<svg width="69" height="69" viewBox="0 0 69 69" fill="none" xmlns="http://www.w3.org/2000/svg">
<g opacity="0.1">
<path d="M57.3629 48.2433C57.1437 48.6088 56.7884 48.8722 56.375 48.9757C55.9616 49.0792 55.524 49.0142 55.1585 48.7951L36.1647 37.3978V58.1299C36.1647 58.5562 35.9954 58.965 35.694 59.2664C35.3926 59.5678 34.9838 59.7371 34.5576 59.7371C34.1313 59.7371 33.7226 59.5678 33.4212 59.2664C33.1198 58.965 32.9504 58.5562 32.9504 58.1299V37.3978L13.9567 48.7951C13.7062 48.9438 13.4203 49.0224 13.129 49.0228C12.7768 49.0241 12.434 48.9096 12.1532 48.697C11.8724 48.4844 11.6692 48.1855 11.5748 47.8462C11.4805 47.5068 11.5002 47.1459 11.631 46.8189C11.7618 46.4919 11.9964 46.2169 12.2987 46.0362L31.4344 34.5585L12.3013 23.0808C11.9355 22.8613 11.6718 22.5055 11.5683 22.0915C11.4649 21.6776 11.53 21.2396 11.7496 20.8737C11.9691 20.5078 12.3249 20.2442 12.7388 20.1407C13.1528 20.0372 13.5908 20.1024 13.9567 20.3219L32.9504 31.7192V10.9871C32.9504 10.5608 33.1198 10.1521 33.4212 9.85066C33.7226 9.54927 34.1313 9.37994 34.5576 9.37994C34.9838 9.37994 35.3926 9.54927 35.694 9.85066C35.9954 10.1521 36.1647 10.5608 36.1647 10.9871V31.7192L55.1585 20.3219C55.5243 20.1024 55.9624 20.0372 56.3763 20.1407C56.7902 20.2442 57.1461 20.5078 57.3656 20.8737C57.5851 21.2396 57.6503 21.6776 57.5468 22.0915C57.4434 22.5055 57.1797 22.8613 56.8138 23.0808L37.6808 34.5585L56.8138 46.0362C56.9949 46.145 57.1528 46.2883 57.2784 46.4582C57.404 46.628 57.495 46.8209 57.546 47.0259C57.597 47.2309 57.607 47.444 57.5756 47.6528C57.5442 47.8617 57.472 48.0624 57.3629 48.2433Z" fill="url(#paint0_linear_186_436)"/>
</g>
<defs>
<linearGradient id="paint0_linear_186_436" x1="12.195" y1="31.3276" x2="58.239" y2="33.5892" gradientUnits="userSpaceOnUse">
<stop stop-color="#814CEC"/>
<stop offset="1" stop-color="white"/>
</linearGradient>
</defs>
</svg>
