<svg width="1920" height="821" viewBox="0 0 1920 821" fill="none" xmlns="http://www.w3.org/2000/svg">
<g opacity="0.06">
<line x1="6.19733e-08" y1="118.673" x2="1920" y2="118.674" stroke="url(#paint0_linear_297_1799)" stroke-width="2"/>
<line x1="6.19733e-08" y1="238.347" x2="1920" y2="238.347" stroke="url(#paint1_linear_297_1799)" stroke-width="2"/>
<line x1="6.19733e-08" y1="358.021" x2="1920" y2="358.021" stroke="url(#paint2_linear_297_1799)" stroke-width="2"/>
<line x1="6.19733e-08" y1="477.694" x2="1920" y2="477.695" stroke="url(#paint3_linear_297_1799)" stroke-width="2"/>
<line x1="263" y1="4.37114e-08" x2="263" y2="821" stroke="url(#paint4_linear_297_1799)" stroke-width="2"/>
<line x1="143" y1="4.37114e-08" x2="143" y2="821" stroke="url(#paint5_linear_297_1799)" stroke-width="2"/>
<line x1="383.5" y1="4.39763e-08" x2="383.5" y2="821" stroke="url(#paint6_linear_297_1799)" stroke-width="2"/>
<line x1="504" y1="4.39763e-08" x2="504" y2="821" stroke="url(#paint7_linear_297_1799)" stroke-width="2"/>
<line x1="623" y1="4.39763e-08" x2="623" y2="821" stroke="url(#paint8_linear_297_1799)" stroke-width="2"/>
<line x1="742" y1="4.39763e-08" x2="742" y2="821" stroke="url(#paint9_linear_297_1799)" stroke-width="2"/>
<line x1="861" y1="4.39763e-08" x2="861" y2="821" stroke="url(#paint10_linear_297_1799)" stroke-width="2"/>
<line x1="980" y1="4.39763e-08" x2="980" y2="821" stroke="url(#paint11_linear_297_1799)" stroke-width="2"/>
<line x1="1099" y1="4.39763e-08" x2="1099" y2="821" stroke="url(#paint12_linear_297_1799)" stroke-width="2"/>
<line x1="1218" y1="4.39763e-08" x2="1218" y2="821" stroke="url(#paint13_linear_297_1799)" stroke-width="2"/>
<line x1="1337" y1="4.39763e-08" x2="1337" y2="821" stroke="url(#paint14_linear_297_1799)" stroke-width="2"/>
<line x1="1456" y1="4.39763e-08" x2="1456" y2="821" stroke="url(#paint15_linear_297_1799)" stroke-width="2"/>
<line x1="1575" y1="4.39763e-08" x2="1575" y2="821" stroke="url(#paint16_linear_297_1799)" stroke-width="2"/>
<line x1="1694" y1="4.39763e-08" x2="1694" y2="821" stroke="url(#paint17_linear_297_1799)" stroke-width="2"/>
<line x1="1813" y1="4.39763e-08" x2="1813" y2="821" stroke="url(#paint18_linear_297_1799)" stroke-width="2"/>
</g>
<defs>
<linearGradient id="paint0_linear_297_1799" x1="-3.09866e-08" y1="120.173" x2="1920" y2="120.173" gradientUnits="userSpaceOnUse">
<stop stop-color="white" stop-opacity="0"/>
<stop offset="0.154167" stop-color="white"/>
<stop offset="0.84" stop-color="white"/>
<stop offset="1" stop-color="white" stop-opacity="0"/>
</linearGradient>
<linearGradient id="paint1_linear_297_1799" x1="-3.09866e-08" y1="239.847" x2="1920" y2="239.847" gradientUnits="userSpaceOnUse">
<stop stop-color="white" stop-opacity="0"/>
<stop offset="0.154167" stop-color="white"/>
<stop offset="0.84" stop-color="white"/>
<stop offset="1" stop-color="white" stop-opacity="0"/>
</linearGradient>
<linearGradient id="paint2_linear_297_1799" x1="-3.09866e-08" y1="359.521" x2="1920" y2="359.521" gradientUnits="userSpaceOnUse">
<stop stop-color="white" stop-opacity="0"/>
<stop offset="0.154167" stop-color="white"/>
<stop offset="0.84" stop-color="white"/>
<stop offset="1" stop-color="white" stop-opacity="0"/>
</linearGradient>
<linearGradient id="paint3_linear_297_1799" x1="-3.09866e-08" y1="479.194" x2="1920" y2="479.194" gradientUnits="userSpaceOnUse">
<stop stop-color="white" stop-opacity="0"/>
<stop offset="0.154167" stop-color="white"/>
<stop offset="0.84" stop-color="white"/>
<stop offset="1" stop-color="white" stop-opacity="0"/>
</linearGradient>
<linearGradient id="paint4_linear_297_1799" x1="262" y1="0" x2="262" y2="821" gradientUnits="userSpaceOnUse">
<stop stop-color="white"/>
<stop offset="1" stop-color="white" stop-opacity="0"/>
</linearGradient>
<linearGradient id="paint5_linear_297_1799" x1="142" y1="0" x2="142" y2="821" gradientUnits="userSpaceOnUse">
<stop stop-color="white"/>
<stop offset="1" stop-color="white" stop-opacity="0"/>
</linearGradient>
<linearGradient id="paint6_linear_297_1799" x1="382.5" y1="0" x2="382.5" y2="821" gradientUnits="userSpaceOnUse">
<stop stop-color="white"/>
<stop offset="1" stop-color="white" stop-opacity="0"/>
</linearGradient>
<linearGradient id="paint7_linear_297_1799" x1="503" y1="0" x2="503" y2="821" gradientUnits="userSpaceOnUse">
<stop stop-color="white"/>
<stop offset="1" stop-color="white" stop-opacity="0"/>
</linearGradient>
<linearGradient id="paint8_linear_297_1799" x1="622" y1="0" x2="622" y2="821" gradientUnits="userSpaceOnUse">
<stop stop-color="white"/>
<stop offset="1" stop-color="white" stop-opacity="0"/>
</linearGradient>
<linearGradient id="paint9_linear_297_1799" x1="741" y1="0" x2="741" y2="821" gradientUnits="userSpaceOnUse">
<stop stop-color="white"/>
<stop offset="1" stop-color="white" stop-opacity="0"/>
</linearGradient>
<linearGradient id="paint10_linear_297_1799" x1="860" y1="0" x2="860" y2="821" gradientUnits="userSpaceOnUse">
<stop stop-color="white"/>
<stop offset="1" stop-color="white" stop-opacity="0"/>
</linearGradient>
<linearGradient id="paint11_linear_297_1799" x1="979" y1="0" x2="979" y2="821" gradientUnits="userSpaceOnUse">
<stop stop-color="white"/>
<stop offset="1" stop-color="white" stop-opacity="0"/>
</linearGradient>
<linearGradient id="paint12_linear_297_1799" x1="1098" y1="0" x2="1098" y2="821" gradientUnits="userSpaceOnUse">
<stop stop-color="white"/>
<stop offset="1" stop-color="white" stop-opacity="0"/>
</linearGradient>
<linearGradient id="paint13_linear_297_1799" x1="1217" y1="0" x2="1217" y2="821" gradientUnits="userSpaceOnUse">
<stop stop-color="white"/>
<stop offset="1" stop-color="white" stop-opacity="0"/>
</linearGradient>
<linearGradient id="paint14_linear_297_1799" x1="1336" y1="0" x2="1336" y2="821" gradientUnits="userSpaceOnUse">
<stop stop-color="white"/>
<stop offset="1" stop-color="white" stop-opacity="0"/>
</linearGradient>
<linearGradient id="paint15_linear_297_1799" x1="1455" y1="0" x2="1455" y2="821" gradientUnits="userSpaceOnUse">
<stop stop-color="white"/>
<stop offset="1" stop-color="white" stop-opacity="0"/>
</linearGradient>
<linearGradient id="paint16_linear_297_1799" x1="1574" y1="0" x2="1574" y2="821" gradientUnits="userSpaceOnUse">
<stop stop-color="white"/>
<stop offset="1" stop-color="white" stop-opacity="0"/>
</linearGradient>
<linearGradient id="paint17_linear_297_1799" x1="1693" y1="0" x2="1693" y2="821" gradientUnits="userSpaceOnUse">
<stop stop-color="white"/>
<stop offset="1" stop-color="white" stop-opacity="0"/>
</linearGradient>
<linearGradient id="paint18_linear_297_1799" x1="1812" y1="0" x2="1812" y2="821" gradientUnits="userSpaceOnUse">
<stop stop-color="white"/>
<stop offset="1" stop-color="white" stop-opacity="0"/>
</linearGradient>
</defs>
</svg>
